<?xml version="1.0" standalone="no"?>
<!DOCTYPE svg PUBLIC "-//W3C//DTD SVG 1.1//EN" "http://www.w3.org/Graphics/SVG/1.1/DTD/svg11.dtd" >
<svg xmlns="http://www.w3.org/2000/svg">
<metadata>Generated by IcoMoon</metadata>
<defs>
<font id="dashboard" horiz-adv-x="1024">
<font-face units-per-em="1024" ascent="896" descent="-128" />
<missing-glyph horiz-adv-x="1024" />
<glyph unicode="&#x20;" horiz-adv-x="0" d="" />
<glyph unicode="&#xe900;" glyph-name="square-check" d="M854.661 341.521c-2.459 1.24-4.922 1.859-7.404 1.859-5.344 0-10.052-2.051-14.154-6.162l-39.411-39.405c-3.684-3.699-5.534-8.208-5.534-13.551v-156.388c0-27.099-9.625-50.281-28.932-69.584-19.292-19.292-42.489-28.939-69.584-28.939h-512.305c-27.097 0-50.292 9.647-69.584 28.939-19.296 19.3-28.939 42.483-28.939 69.584v512.294c0 27.092 9.643 50.285 28.939 69.584 19.292 19.294 42.487 28.939 69.584 28.939h512.309c9.032 0 18.267-1.231 27.707-3.697 2.465-0.815 4.311-1.231 5.528-1.231 5.344 0 10.067 2.047 14.169 6.151l30.172 30.172c4.922 4.919 6.776 10.876 5.534 17.849-1.231 6.569-4.93 11.292-11.088 14.163-22.154 10.249-46.179 15.397-72.040 15.397h-512.292c-48.849 0-90.62-17.344-125.308-52.032-34.684-34.693-52.028-76.457-52.028-125.308v-512.307c0-48.843 17.344-90.611 52.030-125.3 34.688-34.697 76.459-52.041 125.308-52.041h512.303c48.843 0 90.618 17.344 125.306 52.041 34.69 34.688 52.050 76.455 52.050 125.3v195.821c-0.004 8.614-4.13 14.562-12.336 17.853zM1009.224 694.962l-67.74 67.74c-9.852 9.85-21.558 14.776-35.109 14.776-13.533 0-25.248-4.926-35.092-14.776l-398.397-398.395-161.933 161.944c-9.854 9.856-21.556 14.776-35.098 14.776-13.544 0-25.242-4.919-35.098-14.776l-67.731-67.731c-9.852-9.852-14.782-21.554-14.782-35.104 0-13.544 4.93-25.242 14.782-35.098l264.771-264.771c9.854-9.858 21.556-14.776 35.098-14.776s25.242 4.915 35.098 14.776l501.224 501.222c9.845 9.85 14.782 21.554 14.782 35.098s-4.924 25.246-14.776 35.096z" />
<glyph unicode="&#xe901;" glyph-name="square-editor" d="M796.708 270.936c-7.658 3.056-14.361 1.715-20.096-4.017l-36.739-36.739c-3.44-3.434-5.173-7.652-5.173-12.618v-72.332c0-25.261-8.973-46.872-26.956-64.865-17.998-17.984-39.608-26.976-64.865-26.976h-477.571c-25.255 0-46.878 8.993-64.865 26.976-17.988 17.992-26.976 39.602-26.976 64.865v477.559c0 25.257 8.989 46.878 26.976 64.867 17.988 17.984 39.61 26.976 64.865 26.976h477.575c8.416 0 17.029-1.148 25.828-3.446 6.902-2.294 13.012-0.766 18.363 4.592l28.118 28.126c4.596 4.586 6.309 10.139 5.167 16.643-1.148 6.12-4.596 10.523-10.336 13.199-20.667 9.554-43.048 14.353-67.155 14.353h-477.561c-45.533 0-84.473-16.168-116.811-48.504-32.328-32.34-48.496-71.271-48.496-116.809v-477.569c0-45.531 16.168-84.467 48.498-116.803 32.336-32.344 71.279-48.512 116.811-48.512h477.561c45.531 0 84.467 16.168 116.803 48.512 32.344 32.336 48.512 71.271 48.512 116.803v109.057c-0.002 8.050-3.836 13.593-11.478 16.663zM367.352 292.152v-165.301h165.318l385.725 385.723-165.316 165.309-385.727-385.732zM509.698 181.949v0l-32.147 0.014v55.088h-55.098v32.135l66.586 66.586 87.246-87.254-66.586-66.57zM761.682 576.292l-200.907-200.901c-6.502-6.516-12.819-6.703-18.94-0.579-6.118 6.124-5.931 12.437 0.577 18.936l200.907 200.903c6.5 6.512 12.803 6.701 18.94 0.577s5.917-12.435-0.577-18.936zM1007.932 680.182l-87.246 87.246c-10.712 10.716-23.715 16.074-39.029 16.074-15.31 0-28.319-5.358-39.025-16.074l-52.813-52.801 165.316-165.318 52.799 52.811c10.712 10.71 16.066 23.723 16.066 39.031s-5.356 28.315-16.068 39.031z" />
<glyph unicode="&#xe902;" glyph-name="address-book" horiz-adv-x="960" d="M686.272 188.576c0 101.152-24.576 213.728-126.272 213.728-31.424-18.272-74.272-49.728-121.152-49.728s-89.728 31.424-121.152 49.728c-101.728 0-126.272-112.576-126.272-213.728 0-56.576 37.152-97.152 82.848-97.152h329.152c45.728 0 82.848 40.576 82.848 97.152zM587.424 528c0 82.272-66.848 148.576-148.576 148.576s-148.576-66.272-148.576-148.576c0-81.728 66.848-148 148.576-148s148.576 66.272 148.576 148zM950.848 219.424v-109.728c0-10.272-8-18.272-18.272-18.272h-54.848v-128c0-50.272-41.152-91.424-91.424-91.424h-694.848c-50.272 0-91.424 41.152-91.424 91.424v841.152c0 50.272 41.152 91.424 91.424 91.424h694.848c50.272 0 91.424-41.152 91.424-91.424v-128h54.848c10.272 0 18.272-8 18.272-18.272v-109.728c0-10.272-8-18.272-18.272-18.272h-54.848v-73.152h54.848c10.272 0 18.272-8 18.272-18.272v-109.728c0-10.272-8-18.272-18.272-18.272h-54.848v-73.152h54.848c10.272 0 18.272-8 18.272-18.272z" />
<glyph unicode="&#xe903;" glyph-name="address-book-o" horiz-adv-x="960" d="M587.424 528c0-81.728-66.848-148-148.576-148s-148.576 66.272-148.576 148c0 82.272 66.848 148.576 148.576 148.576s148.576-66.272 148.576-148.576zM560 402.272c109.152 0 126.272-129.728 126.272-213.728 0-48-30.272-97.152-82.848-97.152h-329.152c-52.576 0-82.848 49.152-82.848 97.152 0 80.576 17.152 213.728 123.424 213.728h2.848c37.728-22.272 76-49.728 121.152-49.728s83.424 27.424 121.152 49.728zM950.848 548.576c0-9.728-8.576-18.272-18.272-18.272h-54.848v-73.152h54.848c9.728 0 18.272-8.576 18.272-18.272v-109.728c0-9.728-8.576-18.272-18.272-18.272h-54.848v-73.152h54.848c9.728 0 18.272-8.576 18.272-18.272v-109.728c0-9.728-8.576-18.272-18.272-18.272h-54.848v-128c0-50.272-41.152-91.424-91.424-91.424h-694.848c-50.272 0-91.424 41.152-91.424 91.424v841.152c0 50.272 41.152 91.424 91.424 91.424h694.848c50.272 0 91.424-41.152 91.424-91.424v-128h54.848c9.728 0 18.272-8.576 18.272-18.272v-109.728zM804.576-36.576v841.152c0 9.728-8.576 18.272-18.272 18.272h-694.848c-9.728 0-18.272-8.576-18.272-18.272v-841.152c0-9.728 8.576-18.272 18.272-18.272h694.848c9.728 0 18.272 8.576 18.272 18.272z" />
<glyph unicode="&#xe904;" glyph-name="address-card" horiz-adv-x="1184" d="M585.6 227.2c0 102.4-25.6 217.6-131.2 217.6-32-19.2-76.8-51.2-124.8-51.2s-92.8 32-124.8 51.2c-105.6 0-131.2-115.2-131.2-217.6 0-57.6 38.4-99.2 86.4-99.2h342.4c44.8 0 83.2 41.6 83.2 99.2v0zM480 572.8c0 83.2-67.2 150.4-150.4 150.4s-150.4-67.2-150.4-150.4c0-83.2 67.2-150.4 150.4-150.4s150.4 67.2 150.4 150.4zM1097.6 233.6v41.6c0 12.8-9.6 22.4-22.4 22.4h-384c-12.8 0-22.4-9.6-22.4-22.4v-41.6c0-12.8 9.6-22.4 22.4-22.4h384c12.8 3.2 22.4 12.8 22.4 22.4zM1097.6 409.6v38.4c0 12.8-9.6 25.6-25.6 25.6h-377.6c-12.8 0-25.6-9.6-25.6-25.6v-38.4c0-12.8 9.6-25.6 25.6-25.6h377.6c16 0 25.6 9.6 25.6 25.6zM1097.6 576v41.6c0 12.8-9.6 22.4-22.4 22.4h-384c-12.8 0-19.2-9.6-19.2-22.4v-41.6c0-12.8 9.6-22.4 22.4-22.4h384c9.6 0 19.2 9.6 19.2 22.4zM1267.2 790.4v-809.6c0-57.6-48-105.6-105.6-105.6h-233.6v64c0 12.8-9.6 22.4-22.4 22.4h-41.6c-12.8 0-22.4-9.6-22.4-22.4v-64h-512v64c0 12.8-9.6 22.4-22.4 22.4h-41.6c-12.8 0-22.4-9.6-22.4-22.4v-64h-233.6c-57.6-3.2-105.6 44.8-105.6 102.4v812.8c0 57.6 48 105.6 105.6 105.6h1152c57.6 0 105.6-48 105.6-105.6v0z" />
<glyph unicode="&#xe905;" glyph-name="address-card-o" horiz-adv-x="1184" d="M585.6 227.2c0-57.6-38.4-99.2-86.4-99.2h-339.2c-48 0-86.4 41.6-86.4 99.2 0 102.4 25.6 217.6 131.2 217.6 32-19.2 76.8-51.2 124.8-51.2s92.8 32 124.8 51.2c105.6 0 131.2-115.2 131.2-217.6v0zM480 572.8c0-83.2-67.2-150.4-150.4-150.4s-150.4 67.2-150.4 150.4c0 83.2 67.2 150.4 150.4 150.4s150.4-67.2 150.4-150.4zM1097.6 278.4v-41.6c0-12.8-9.6-22.4-22.4-22.4h-384c-12.8 0-22.4 9.6-22.4 22.4v41.6c0 12.8 9.6 22.4 22.4 22.4h384c12.8-3.2 22.4-12.8 22.4-22.4zM1097.6 444.8v-38.4c0-12.8-9.6-25.6-25.6-25.6h-377.6c-12.8 0-25.6 9.6-25.6 25.6v38.4c0 12.8 9.6 25.6 25.6 25.6h377.6c16 0 25.6-12.8 25.6-25.6zM1097.6 617.6v-41.6c0-12.8-9.6-22.4-22.4-22.4h-384c-12.8 0-22.4 9.6-22.4 22.4v41.6c3.2 12.8 9.6 22.4 22.4 22.4h384c12.8 0 22.4-9.6 22.4-22.4zM1184-22.4v812.8c0 12.8-9.6 22.4-22.4 22.4h-1152c-12.8 0-22.4-9.6-22.4-22.4v-809.6c0-12.8 9.6-22.4 22.4-22.4h233.6v64c0 12.8 9.6 22.4 22.4 22.4h41.6c12.8 0 22.4-9.6 22.4-22.4v-64h512v64c0 12.8 9.6 22.4 22.4 22.4h41.6c12.8 0 22.4-9.6 22.4-22.4v-64h233.6c9.6 0 22.4 9.6 22.4 19.2v0zM1267.2 790.4v-809.6c0-57.6-48-105.6-105.6-105.6h-1152c-57.6-3.2-105.6 44.8-105.6 102.4v812.8c0 57.6 48 105.6 105.6 105.6h1152c57.6 0 105.6-48 105.6-105.6z" />
<glyph unicode="&#xe906;" glyph-name="assignement" d="M518.4 896c22.4 0 44.8-6.4 60.8-25.6 16-16 22.4-35.2 25.6-57.6h64c12.8 0 25.6-6.4 38.4-16 9.6-9.6 16-22.4 16-35.2s-9.6-25.6-19.2-35.2c-9.6-9.6-19.2-12.8-32-16 0 0-3.2 0-3.2 0h-294.4c-12.8 0-25.6 6.4-35.2 16s-16 22.4-16 35.2 6.4 25.6 16 35.2c9.6 9.6 19.2 16 32 16h60.8c0 22.4 9.6 41.6 25.6 57.6 16 19.2 38.4 25.6 60.8 25.6zM444.8 592h60.8l-134.4-163.2-80 102.4h57.6l25.6-25.6 70.4 86.4zM400 560h-128v-156.8h156.8v70.4l25.6 32v-128h-208v208h172.8l-19.2-25.6zM524.8 441.6h124.8v-51.2h-124.8v51.2zM524.8 540.8h256v-51.2h-256v51.2zM742.4 764.8c0 12.8-3.2 25.6-6.4 35.2h64c54.4 0 83.2-28.8 83.2-83.2v-764.8c0-3.2 0-6.4 0-9.6-3.2-44.8-28.8-70.4-76.8-70.4-3.2 0-3.2 0-6.4 0h-576c-9.6 0-22.4 0-32 3.2-32 9.6-48 32-51.2 70.4 0 3.2 0 6.4 0 9.6v761.6c3.2 54.4 28.8 83.2 83.2 83.2h83.2c-6.4-12.8-9.6-22.4-9.6-35.2 0-6.4 0-12.8 3.2-16h-76.8c-19.2 0-32-9.6-32-28.8v-764.8c0-3.2 0-6.4 0-6.4v0-3.2c0-6.4 0-9.6 3.2-12.8l6.4-6.4h3.2c3.2-3.2 9.6-3.2 16-3.2h572.8c3.2 0 3.2 0 6.4 0h3.2c12.8 3.2 19.2 9.6 22.4 19.2v3.2c0 3.2 0 3.2 0 6.4v764.8c0 19.2-9.6 28.8-32 28.8h-57.6c6.4 6.4 6.4 12.8 6.4 19.2v0zM348.8 236.8l25.6-22.4 73.6 86.4h60.8l-134.4-163.2-80 99.2h54.4zM246.4 294.4h172.8l-19.2-25.6h-128v-156.8h156.8v70.4l25.6 32v-124.8h-208v204.8zM524.8 249.6h256v-51.2h-256v51.2zM524.8 147.2h124.8v-51.2h-124.8v51.2z" />
<glyph unicode="&#xe907;" glyph-name="asterisk" horiz-adv-x="960" d="M908.8 281.6c41.6-22.4 54.4-76.8 32-115.2l-44.8-73.6c-22.4-41.6-76.8-54.4-115.2-32l-176 102.4v-204.8c0-48-38.4-86.4-86.4-86.4h-86.4c-48 0-86.4 38.4-86.4 86.4v204.8l-176-102.4c-41.6-22.4-92.8-9.6-115.2 32l-41.6 73.6c-22.4 41.6-9.6 92.8 32 115.2l176 102.4-176 102.4c-41.6 22.4-54.4 76.8-32 115.2l41.6 73.6c22.4 41.6 76.8 54.4 115.2 32l176-102.4v204.8c0 48 38.4 86.4 86.4 86.4h86.4c48 0 86.4-38.4 86.4-86.4v-204.8l176 102.4c41.6 22.4 92.8 9.6 115.2-32l41.6-73.6c22.4-41.6 9.6-92.8-32-115.2l-172.8-102.4 176-102.4z" />
<glyph unicode="&#xe908;" glyph-name="attivita" d="M1104 716.8c28.8-3.2 51.2-25.6 51.2-54.4v-736c0-28.8-25.6-54.4-54.4-54.4h-1177.6c-28.8 0-54.4 25.6-54.4 54.4v736c0 25.6 19.2 48 44.8 54.4v70.4c0 16 9.6 28.8 22.4 35.2 102.4 51.2 201.6 73.6 300.8 73.6 92.8 0 182.4-25.6 272-67.2 99.2 44.8 195.2 67.2 284.8 67.2 99.2-3.2 195.2-25.6 288-73.6 12.8-6.4 22.4-19.2 22.4-35.2v0-70.4zM470.4 137.6h-80c-16 0-25.6 9.6-32 22.4-6.4-12.8-19.2-22.4-32-22.4v0h-86.4c-19.2 0-35.2 16-35.2 35.2 0 3.2 0 6.4 0 9.6l64 380.8c3.2 16 19.2 32 35.2 32v0h105.6v128c0 19.2 16 35.2 35.2 35.2h25.6v3.2c-76.8 35.2-156.8 54.4-233.6 57.6-80 0-163.2-16-246.4-57.6v-710.4c83.2 35.2 166.4 54.4 246.4 51.2 80 0 156.8-19.2 233.6-54.4v89.6zM540.8 752c9.6-6.4 16-16 16-28.8v-35.2c3.2 0 6.4 0 9.6 0 9.6 0 19.2-3.2 28.8-6.4s19.2-6.4 25.6-12.8c9.6-6.4 19.2-16 25.6-25.6s9.6-22.4 9.6-35.2v-99.2c16 3.2 32 6.4 51.2 6.4 35.2 0 67.2-6.4 86.4-22.4 25.6-16 38.4-44.8 38.4-76.8v-76.8c0-6.4-3.2-12.8-6.4-19.2 3.2-6.4 6.4-12.8 6.4-19.2v-76.8c0-35.2-12.8-57.6-38.4-76.8-22.4-16-51.2-22.4-86.4-22.4-38.4 0-67.2 6.4-89.6 22.4-25.6 19.2-38.4 44.8-38.4 76.8v73.6c-9.6-3.2-19.2-3.2-28.8-3.2-3.2 0-3.2 0-6.4 0v-243.2c83.2 35.2 166.4 54.4 246.4 51.2 80 0 156.8-19.2 233.6-54.4v713.6c-76.8 35.2-156.8 54.4-233.6 57.6-80 0-160-16-243.2-54.4v-12.8h-6.4zM659.2 470.4v0 0h-19.2l-3.2-3.2c0 0-3.2 0-3.2-3.2v0c0 0 0 0-3.2-3.2v0c-3.2-3.2-3.2-3.2-6.4-6.4v0c0-3.2-3.2-3.2-3.2-6.4v-6.4c-3.2-6.4-3.2-16-3.2-25.6v-188.8c0-44.8 28.8-67.2 89.6-67.2 57.6 0 86.4 22.4 86.4 64v76.8h-76.8v-76.8c0-9.6-6.4-16-12.8-16-9.6 0-12.8 6.4-12.8 16v192c0 9.6 6.4 16 12.8 16 9.6 0 12.8-6.4 12.8-16v-76.8h76.8v76.8c0 41.6-28.8 64-86.4 64-16 0-35.2-3.2-48-9.6v0 0zM624 492.8v115.2c0 12.8-6.4 25.6-16 32-12.8 6.4-25.6 12.8-38.4 12.8-22.4 0-38.4-3.2-48-12.8v80h-76.8v-384h57.6l6.4 9.6c16-9.6 28.8-16 44.8-16 9.6 0 19.2 0 28.8 3.2v73.6c0 41.6 12.8 67.2 41.6 86.4-3.2 0-3.2 0 0 0v0 0zM409.6 556.8h-105.6l-64-384h83.2l16 102.4h38.4l16-102.4h80v16l-19.2 112h-6.4c-19.2 0-35.2 16-35.2 35.2l-3.2 220.8zM547.2 396.8v192c0 9.6-6.4 16-12.8 16-9.6 0-12.8-6.4-12.8-12.8v-192c0-9.6 6.4-16 12.8-16 9.6-3.2 12.8 3.2 12.8 12.8v0zM368 329.6l-12.8 115.2-12.8-115.2c3.2 0 25.6 0 25.6 0z" />
<glyph unicode="&#xe909;" glyph-name="bar-chart" horiz-adv-x="1184" d="M329.6 384v-342.4h-169.6v342.4c0 0 169.6 0 169.6 0zM585.6 726.4v-681.6h-169.6v681.6c0 0 169.6 0 169.6 0zM1267.2-41.6v-86.4h-1363.2v1024h86.4v-937.6h1276.8zM841.6 553.6v-512h-169.6v512c0 0 169.6 0 169.6 0zM1097.6 809.6v-768h-169.6v768c0 0 169.6 0 169.6 0z" />
<glyph unicode="&#xe90a;" glyph-name="bell" d="M521.152-73.152c0 5.152-4 9.152-9.152 9.152-45.152 0-82.272 37.152-82.272 82.272 0 5.152-4 9.152-9.152 9.152s-9.152-4-9.152-9.152c0-55.424 45.152-100.576 100.576-100.576 5.152 0 9.152 4 9.152 9.152zM987.424 91.424c0-40-33.152-73.152-73.152-73.152h-256c0-80.576-65.728-146.272-146.272-146.272s-146.272 65.728-146.272 146.272h-256c-40 0-73.152 33.152-73.152 73.152 84.576 71.424 182.848 199.424 182.848 475.424 0 109.728 90.848 229.728 242.272 252-2.848 6.848-4.576 14.272-4.576 22.272 0 30.272 24.576 54.848 54.848 54.848s54.848-24.576 54.848-54.848c0-8-1.728-15.424-4.576-22.272 151.424-22.272 242.272-142.272 242.272-252 0-276 98.272-404 182.848-475.424z" />
<glyph unicode="&#xe90b;" glyph-name="bell-o" d="M521.152-73.152c0 5.152-4 9.152-9.152 9.152-45.152 0-82.272 37.152-82.272 82.272 0 5.152-4 9.152-9.152 9.152s-9.152-4-9.152-9.152c0-55.424 45.152-100.576 100.576-100.576 5.152 0 9.152 4 9.152 9.152zM140.576 91.424h742.848c-102.272 115.424-152 272-152 475.424 0 73.728-69.728 182.848-219.424 182.848s-219.424-109.152-219.424-182.848c0-203.424-49.728-360-152-475.424zM987.424 91.424c0-40-33.152-73.152-73.152-73.152h-256c0-80.576-65.728-146.272-146.272-146.272s-146.272 65.728-146.272 146.272h-256c-40 0-73.152 33.152-73.152 73.152 84.576 71.424 182.848 199.424 182.848 475.424 0 109.728 90.848 229.728 242.272 252-2.848 6.848-4.576 14.272-4.576 22.272 0 30.272 24.576 54.848 54.848 54.848s54.848-24.576 54.848-54.848c0-8-1.728-15.424-4.576-22.272 151.424-22.272 242.272-142.272 242.272-252 0-276 98.272-404 182.848-475.424z" />
<glyph unicode="&#xe90c;" glyph-name="book" horiz-adv-x="960" d="M1004.8 649.6c16-22.4 22.4-54.4 12.8-83.2l-179.2-595.2c-19.2-54.4-76.8-99.2-134.4-99.2h-604.8c-67.2 0-137.6 54.4-163.2 121.6-9.6 28.8-9.6 57.6 0 83.2 0 12.8 3.2 25.6 3.2 41.6 0 9.6-6.4 19.2-3.2 25.6 3.2 16 16 25.6 25.6 44.8 19.2 32 41.6 86.4 48 118.4 3.2 12.8-3.2 25.6 0 38.4s16 22.4 22.4 32c19.2 28.8 41.6 89.6 44.8 118.4 0 12.8-6.4 28.8 0 38.4 6.4 19.2 19.2 25.6 28.8 41.6 16 22.4 41.6 83.2 44.8 118.4 0 9.6-6.4 22.4-3.2 35.2 6.4 9.6 19.2 22.4 32 38.4 28.8 41.6 32 131.2 115.2 105.6v-3.2c9.6 3.2 22.4 6.4 32 6.4h499.2c32 0 57.6-12.8 73.6-35.2s22.4-54.4 12.8-86.4l-179.2-595.2c-32-102.4-48-124.8-131.2-124.8h-569.6c-9.6 0-19.2-3.2-25.6-9.6s-6.4-12.8 0-28.8c12.8-38.4 57.6-44.8 92.8-44.8h604.8c25.6 0 51.2 12.8 60.8 38.4l198.4 649.6c3.2 12.8 3.2 25.6 3.2 38.4 12.8-6.4 28.8-16 38.4-28.8v0zM307.2 649.6c-3.2-12.8 3.2-22.4 12.8-22.4h400c9.6 0 22.4 9.6 28.8 22.4l12.8 41.6c3.2 12.8-3.2 22.4-16 22.4h-396.8c-9.6 0-22.4-9.6-28.8-22.4l-12.8-41.6zM252.8 480c-3.2-12.8 3.2-22.4 16-22.4h400c9.6 0 22.4 9.6 28.8 22.4l12.8 41.6c3.2 12.8-3.2 22.4-16 22.4h-400c-9.6 0-22.4-9.6-28.8-22.4l-12.8-41.6z" />
<glyph unicode="&#xe90d;" glyph-name="briefcase" d="M342.4 726.4h342.4v83.2h-342.4c0 0 0-83.2 0-83.2zM1110.4 297.6v-320c0-57.6-48-105.6-105.6-105.6h-982.4c-57.6 0-105.6 48-105.6 105.6v320h448v-105.6c0-22.4 19.2-41.6 41.6-41.6h214.4c22.4 0 41.6 19.2 41.6 41.6v105.6c0 0 448 0 448 0zM598.4 297.6v-86.4h-169.6v86.4c-3.2 0 169.6 0 169.6 0zM1110.4 617.6v-256h-1196.8v256c0 57.6 48 105.6 105.6 105.6h236.8v108.8c0 35.2 28.8 64 64 64h384c35.2 0 64-28.8 64-64v-105.6h233.6c60.8 0 108.8-48 108.8-108.8z" />
<glyph unicode="&#xe90e;" glyph-name="building" horiz-adv-x="800" d="M768 896c20 0 36.576-16.576 36.576-36.576v-950.848c0-20-16.576-36.576-36.576-36.576h-731.424c-20 0-36.576 16.576-36.576 36.576v950.848c0 20 16.576 36.576 36.576 36.576h731.424zM292.576 731.424v-36.576c0-10.272 8-18.272 18.272-18.272h36.576c10.272 0 18.272 8 18.272 18.272v36.576c0 10.272-8 18.272-18.272 18.272h-36.576c-10.272 0-18.272-8-18.272-18.272zM292.576 585.152v-36.576c0-10.272 8-18.272 18.272-18.272h36.576c10.272 0 18.272 8 18.272 18.272v36.576c0 10.272-8 18.272-18.272 18.272h-36.576c-10.272 0-18.272-8-18.272-18.272zM292.576 438.848v-36.576c0-10.272 8-18.272 18.272-18.272h36.576c10.272 0 18.272 8 18.272 18.272v36.576c0 10.272-8 18.272-18.272 18.272h-36.576c-10.272 0-18.272-8-18.272-18.272zM292.576 292.576v-36.576c0-10.272 8-18.272 18.272-18.272h36.576c10.272 0 18.272 8 18.272 18.272v36.576c0 10.272-8 18.272-18.272 18.272h-36.576c-10.272 0-18.272-8-18.272-18.272zM219.424 109.728v36.576c0 10.272-8 18.272-18.272 18.272h-36.576c-10.272 0-18.272-8-18.272-18.272v-36.576c0-10.272 8-18.272 18.272-18.272h36.576c10.272 0 18.272 8 18.272 18.272zM219.424 256v36.576c0 10.272-8 18.272-18.272 18.272h-36.576c-10.272 0-18.272-8-18.272-18.272v-36.576c0-10.272 8-18.272 18.272-18.272h36.576c10.272 0 18.272 8 18.272 18.272zM219.424 402.272v36.576c0 10.272-8 18.272-18.272 18.272h-36.576c-10.272 0-18.272-8-18.272-18.272v-36.576c0-10.272 8-18.272 18.272-18.272h36.576c10.272 0 18.272 8 18.272 18.272zM219.424 548.576v36.576c0 10.272-8 18.272-18.272 18.272h-36.576c-10.272 0-18.272-8-18.272-18.272v-36.576c0-10.272 8-18.272 18.272-18.272h36.576c10.272 0 18.272 8 18.272 18.272zM219.424 694.848v36.576c0 10.272-8 18.272-18.272 18.272h-36.576c-10.272 0-18.272-8-18.272-18.272v-36.576c0-10.272 8-18.272 18.272-18.272h36.576c10.272 0 18.272 8 18.272 18.272zM512-36.576v109.728c0 10.272-8 18.272-18.272 18.272h-182.848c-10.272 0-18.272-8-18.272-18.272v-109.728c0-10.272 8-18.272 18.272-18.272h182.848c10.272 0 18.272 8 18.272 18.272zM512 256v36.576c0 10.272-8 18.272-18.272 18.272h-36.576c-10.272 0-18.272-8-18.272-18.272v-36.576c0-10.272 8-18.272 18.272-18.272h36.576c10.272 0 18.272 8 18.272 18.272zM512 402.272v36.576c0 10.272-8 18.272-18.272 18.272h-36.576c-10.272 0-18.272-8-18.272-18.272v-36.576c0-10.272 8-18.272 18.272-18.272h36.576c10.272 0 18.272 8 18.272 18.272zM512 548.576v36.576c0 10.272-8 18.272-18.272 18.272h-36.576c-10.272 0-18.272-8-18.272-18.272v-36.576c0-10.272 8-18.272 18.272-18.272h36.576c10.272 0 18.272 8 18.272 18.272zM512 694.848v36.576c0 10.272-8 18.272-18.272 18.272h-36.576c-10.272 0-18.272-8-18.272-18.272v-36.576c0-10.272 8-18.272 18.272-18.272h36.576c10.272 0 18.272 8 18.272 18.272zM658.272 109.728v36.576c0 10.272-8 18.272-18.272 18.272h-36.576c-10.272 0-18.272-8-18.272-18.272v-36.576c0-10.272 8-18.272 18.272-18.272h36.576c10.272 0 18.272 8 18.272 18.272zM658.272 256v36.576c0 10.272-8 18.272-18.272 18.272h-36.576c-10.272 0-18.272-8-18.272-18.272v-36.576c0-10.272 8-18.272 18.272-18.272h36.576c10.272 0 18.272 8 18.272 18.272zM658.272 402.272v36.576c0 10.272-8 18.272-18.272 18.272h-36.576c-10.272 0-18.272-8-18.272-18.272v-36.576c0-10.272 8-18.272 18.272-18.272h36.576c10.272 0 18.272 8 18.272 18.272zM658.272 548.576v36.576c0 10.272-8 18.272-18.272 18.272h-36.576c-10.272 0-18.272-8-18.272-18.272v-36.576c0-10.272 8-18.272 18.272-18.272h36.576c10.272 0 18.272 8 18.272 18.272zM658.272 694.848v36.576c0 10.272-8 18.272-18.272 18.272h-36.576c-10.272 0-18.272-8-18.272-18.272v-36.576c0-10.272 8-18.272 18.272-18.272h36.576c10.272 0 18.272 8 18.272 18.272z" />
<glyph unicode="&#xe90f;" glyph-name="building-o" horiz-adv-x="800" d="M219.424 146.272v-36.576c0-9.728-8.576-18.272-18.272-18.272h-36.576c-9.728 0-18.272 8.576-18.272 18.272v36.576c0 9.728 8.576 18.272 18.272 18.272h36.576c9.728 0 18.272-8.576 18.272-18.272zM219.424 292.576v-36.576c0-9.728-8.576-18.272-18.272-18.272h-36.576c-9.728 0-18.272 8.576-18.272 18.272v36.576c0 9.728 8.576 18.272 18.272 18.272h36.576c9.728 0 18.272-8.576 18.272-18.272zM365.728 292.576v-36.576c0-9.728-8.576-18.272-18.272-18.272h-36.576c-9.728 0-18.272 8.576-18.272 18.272v36.576c0 9.728 8.576 18.272 18.272 18.272h36.576c9.728 0 18.272-8.576 18.272-18.272zM219.424 438.848v-36.576c0-9.728-8.576-18.272-18.272-18.272h-36.576c-9.728 0-18.272 8.576-18.272 18.272v36.576c0 9.728 8.576 18.272 18.272 18.272h36.576c9.728 0 18.272-8.576 18.272-18.272zM658.272 146.272v-36.576c0-9.728-8.576-18.272-18.272-18.272h-36.576c-9.728 0-18.272 8.576-18.272 18.272v36.576c0 9.728 8.576 18.272 18.272 18.272h36.576c9.728 0 18.272-8.576 18.272-18.272zM512 292.576v-36.576c0-9.728-8.576-18.272-18.272-18.272h-36.576c-9.728 0-18.272 8.576-18.272 18.272v36.576c0 9.728 8.576 18.272 18.272 18.272h36.576c9.728 0 18.272-8.576 18.272-18.272zM365.728 438.848v-36.576c0-9.728-8.576-18.272-18.272-18.272h-36.576c-9.728 0-18.272 8.576-18.272 18.272v36.576c0 9.728 8.576 18.272 18.272 18.272h36.576c9.728 0 18.272-8.576 18.272-18.272zM219.424 585.152v-36.576c0-9.728-8.576-18.272-18.272-18.272h-36.576c-9.728 0-18.272 8.576-18.272 18.272v36.576c0 9.728 8.576 18.272 18.272 18.272h36.576c9.728 0 18.272-8.576 18.272-18.272zM658.272 292.576v-36.576c0-9.728-8.576-18.272-18.272-18.272h-36.576c-9.728 0-18.272 8.576-18.272 18.272v36.576c0 9.728 8.576 18.272 18.272 18.272h36.576c9.728 0 18.272-8.576 18.272-18.272zM512 438.848v-36.576c0-9.728-8.576-18.272-18.272-18.272h-36.576c-9.728 0-18.272 8.576-18.272 18.272v36.576c0 9.728 8.576 18.272 18.272 18.272h36.576c9.728 0 18.272-8.576 18.272-18.272zM365.728 585.152v-36.576c0-9.728-8.576-18.272-18.272-18.272h-36.576c-9.728 0-18.272 8.576-18.272 18.272v36.576c0 9.728 8.576 18.272 18.272 18.272h36.576c9.728 0 18.272-8.576 18.272-18.272zM219.424 731.424v-36.576c0-9.728-8.576-18.272-18.272-18.272h-36.576c-9.728 0-18.272 8.576-18.272 18.272v36.576c0 9.728 8.576 18.272 18.272 18.272h36.576c9.728 0 18.272-8.576 18.272-18.272zM658.272 438.848v-36.576c0-9.728-8.576-18.272-18.272-18.272h-36.576c-9.728 0-18.272 8.576-18.272 18.272v36.576c0 9.728 8.576 18.272 18.272 18.272h36.576c9.728 0 18.272-8.576 18.272-18.272zM512 585.152v-36.576c0-9.728-8.576-18.272-18.272-18.272h-36.576c-9.728 0-18.272 8.576-18.272 18.272v36.576c0 9.728 8.576 18.272 18.272 18.272h36.576c9.728 0 18.272-8.576 18.272-18.272zM365.728 731.424v-36.576c0-9.728-8.576-18.272-18.272-18.272h-36.576c-9.728 0-18.272 8.576-18.272 18.272v36.576c0 9.728 8.576 18.272 18.272 18.272h36.576c9.728 0 18.272-8.576 18.272-18.272zM658.272 585.152v-36.576c0-9.728-8.576-18.272-18.272-18.272h-36.576c-9.728 0-18.272 8.576-18.272 18.272v36.576c0 9.728 8.576 18.272 18.272 18.272h36.576c9.728 0 18.272-8.576 18.272-18.272zM512 731.424v-36.576c0-9.728-8.576-18.272-18.272-18.272h-36.576c-9.728 0-18.272 8.576-18.272 18.272v36.576c0 9.728 8.576 18.272 18.272 18.272h36.576c9.728 0 18.272-8.576 18.272-18.272zM658.272 731.424v-36.576c0-9.728-8.576-18.272-18.272-18.272h-36.576c-9.728 0-18.272 8.576-18.272 18.272v36.576c0 9.728 8.576 18.272 18.272 18.272h36.576c9.728 0 18.272-8.576 18.272-18.272zM512-54.848h219.424v877.728h-658.272v-877.728h219.424v128c0 9.728 8.576 18.272 18.272 18.272h182.848c9.728 0 18.272-8.576 18.272-18.272v-128zM804.576 859.424v-950.848c0-20-16.576-36.576-36.576-36.576h-731.424c-20 0-36.576 16.576-36.576 36.576v950.848c0 20 16.576 36.576 36.576 36.576h731.424c20 0 36.576-16.576 36.576-36.576z" />
<glyph unicode="&#xe910;" glyph-name="bullhorn" d="M1024 553.6c48 0 86.4-38.4 86.4-86.4s-38.4-83.2-86.4-83.2v-256c0-48-38.4-86.4-86.4-86.4-118.4 99.2-310.4 233.6-540.8 252.8-80-25.6-105.6-118.4-54.4-172.8-48-76.8 12.8-131.2 83.2-185.6-41.6-80-214.4-83.2-275.2-25.6-38.4 118.4-96 236.8-48 387.2h-80c-57.6 0-105.6 48-105.6 105.6v128c-3.2 60.8 44.8 108.8 105.6 108.8h320c256 0 470.4 150.4 598.4 256 44.8 0 83.2-38.4 83.2-86.4v-256zM937.6 150.4v636.8c-172.8-134.4-342.4-211.2-512-227.2v-179.2c169.6-19.2 339.2-96 512-230.4v0z" />
<glyph unicode="&#xe911;" glyph-name="calendar" horiz-adv-x="960" d="M73.152-54.848h164.576v164.576h-164.576v-164.576zM274.272-54.848h182.848v164.576h-182.848v-164.576zM73.152 146.272h164.576v182.848h-164.576v-182.848zM274.272 146.272h182.848v182.848h-182.848v-182.848zM73.152 365.728h164.576v164.576h-164.576v-164.576zM493.728-54.848h182.848v164.576h-182.848v-164.576zM274.272 365.728h182.848v164.576h-182.848v-164.576zM713.152-54.848h164.576v164.576h-164.576v-164.576zM493.728 146.272h182.848v182.848h-182.848v-182.848zM292.576 640v164.576c0 9.728-8.576 18.272-18.272 18.272h-36.576c-9.728 0-18.272-8.576-18.272-18.272v-164.576c0-9.728 8.576-18.272 18.272-18.272h36.576c9.728 0 18.272 8.576 18.272 18.272zM713.152 146.272h164.576v182.848h-164.576v-182.848zM493.728 365.728h182.848v164.576h-182.848v-164.576zM713.152 365.728h164.576v164.576h-164.576v-164.576zM731.424 640v164.576c0 9.728-8.576 18.272-18.272 18.272h-36.576c-9.728 0-18.272-8.576-18.272-18.272v-164.576c0-9.728 8.576-18.272 18.272-18.272h36.576c9.728 0 18.272 8.576 18.272 18.272zM950.848 676.576v-731.424c0-40-33.152-73.152-73.152-73.152h-804.576c-40 0-73.152 33.152-73.152 73.152v731.424c0 40 33.152 73.152 73.152 73.152h73.152v54.848c0 50.272 41.152 91.424 91.424 91.424h36.576c50.272 0 91.424-41.152 91.424-91.424v-54.848h219.424v54.848c0 50.272 41.152 91.424 91.424 91.424h36.576c50.272 0 91.424-41.152 91.424-91.424v-54.848h73.152c40 0 73.152-33.152 73.152-73.152z" />
<glyph unicode="&#xe912;" glyph-name="calendar-check-o" horiz-adv-x="960" d="M744.576 345.152l-292.576-292.576c-7.424-6.848-18.848-6.848-26.272 0l-164.576 164.576c-6.848 7.424-6.848 18.848 0 25.728l26.272 26.272c6.848 6.848 18.272 6.848 25.728 0l125.728-125.728 253.728 253.728c7.424 6.848 18.848 6.848 25.728 0l26.272-26.272c6.848-6.848 6.848-18.272 0-25.728zM73.152-54.848h804.576v585.152h-804.576v-585.152zM292.576 640v164.576c0 10.272-8 18.272-18.272 18.272h-36.576c-10.272 0-18.272-8-18.272-18.272v-164.576c0-10.272 8-18.272 18.272-18.272h36.576c10.272 0 18.272 8 18.272 18.272zM731.424 640v164.576c0 10.272-8 18.272-18.272 18.272h-36.576c-10.272 0-18.272-8-18.272-18.272v-164.576c0-10.272 8-18.272 18.272-18.272h36.576c10.272 0 18.272 8 18.272 18.272zM950.848 676.576v-731.424c0-40-33.152-73.152-73.152-73.152h-804.576c-40 0-73.152 33.152-73.152 73.152v731.424c0 40 33.152 73.152 73.152 73.152h73.152v54.848c0 50.272 41.152 91.424 91.424 91.424h36.576c50.272 0 91.424-41.152 91.424-91.424v-54.848h219.424v54.848c0 50.272 41.152 91.424 91.424 91.424h36.576c50.272 0 91.424-41.152 91.424-91.424v-54.848h73.152c40 0 73.152-33.152 73.152-73.152z" />
<glyph unicode="&#xe913;" glyph-name="calendar-o" horiz-adv-x="960" d="M73.152-54.848h804.576v585.152h-804.576v-585.152zM292.576 640v164.576c0 10.272-8 18.272-18.272 18.272h-36.576c-10.272 0-18.272-8-18.272-18.272v-164.576c0-10.272 8-18.272 18.272-18.272h36.576c10.272 0 18.272 8 18.272 18.272zM731.424 640v164.576c0 10.272-8 18.272-18.272 18.272h-36.576c-10.272 0-18.272-8-18.272-18.272v-164.576c0-10.272 8-18.272 18.272-18.272h36.576c10.272 0 18.272 8 18.272 18.272zM950.848 676.576v-731.424c0-40-33.152-73.152-73.152-73.152h-804.576c-40 0-73.152 33.152-73.152 73.152v731.424c0 40 33.152 73.152 73.152 73.152h73.152v54.848c0 50.272 41.152 91.424 91.424 91.424h36.576c50.272 0 91.424-41.152 91.424-91.424v-54.848h219.424v54.848c0 50.272 41.152 91.424 91.424 91.424h36.576c50.272 0 91.424-41.152 91.424-91.424v-54.848h73.152c40 0 73.152-33.152 73.152-73.152z" />
<glyph unicode="&#xe914;" glyph-name="camera" horiz-adv-x="1088" d="M547.2 483.2c99.2 0 176-80 176-176s-76.8-179.2-176-179.2-176 80-176 176 80 179.2 176 179.2zM982.4 739.2c86.4 0 156.8-70.4 156.8-156.8v-550.4c0-86.4-70.4-156.8-156.8-156.8h-867.2c-86.4 0-156.8 70.4-156.8 156.8v550.4c0 86.4 70.4 156.8 156.8 156.8h137.6l32 83.2c16 41.6 64 73.6 105.6 73.6h313.6c41.6 0 89.6-32 105.6-73.6l32-83.2c3.2 0 140.8 0 140.8 0zM547.2 28.8c153.6 0 275.2 124.8 275.2 275.2s-124.8 275.2-275.2 275.2-275.2-124.8-275.2-275.2 124.8-275.2 275.2-275.2z" />
<glyph unicode="&#xe915;" glyph-name="catalogo" d="M92.8 822.4v-505.6c60.8-6.4 112-19.2 156.8-38.4 28.8-12.8 51.2-25.6 73.6-41.6v480c-25.6 41.6-60.8 67.2-105.6 83.2-38.4 12.8-80 19.2-124.8 22.4v0 0zM550.4 684.8c44.8 41.6 105.6 60.8 163.2 57.6s115.2-25.6 156.8-73.6c41.6-44.8 60.8-105.6 57.6-163.2s-25.6-115.2-73.6-156.8c-44.8-41.6-105.6-60.8-163.2-57.6s-115.2 25.6-156.8 73.6-60.8 105.6-57.6 163.2c3.2 57.6 28.8 115.2 73.6 156.8 0 0 0 0 0 0zM710.4 688c-44.8 3.2-86.4-12.8-121.6-44.8s-51.2-73.6-54.4-118.4c-3.2-44.8 12.8-86.4 44.8-121.6s73.6-51.2 118.4-54.4c41.6-3.2 86.4 12.8 121.6 44.8s51.2 73.6 54.4 118.4c3.2 44.8-12.8 86.4-44.8 121.6s-73.6 54.4-118.4 54.4c0 0 0 0 0 0zM870.4 326.4l12.8 12.8c25.6 22.4 64 22.4 86.4-3.2l131.2-140.8c22.4-25.6 22.4-64-3.2-86.4l-12.8-12.8c-25.6-22.4-64-22.4-86.4 3.2l-131.2 140.8c-25.6 22.4-22.4 64 3.2 86.4zM1068.8 92.8c-6.4 3.2-12.8 6.4-16 12.8l-160 176c-9.6 9.6-12.8 19.2-12.8 28.8-12.8-22.4-9.6-48 9.6-67.2l121.6-134.4c12.8-16 35.2-22.4 57.6-16v0zM576 473.6v0c-32 80 28.8 182.4 134.4 185.6-57.6-48-105.6-108.8-134.4-185.6zM598.4 19.2v-128c0-9.6-9.6-19.2-19.2-19.2-3.2 0-9.6 3.2-12.8 6.4l-67.2 54.4-57.6-51.2c-6.4-6.4-19.2-6.4-25.6 3.2-3.2 3.2-3.2 6.4-3.2 12.8v0 124.8h-470.4c-22.4 0-41.6 19.2-41.6 41.6v560c0 19.2 16 38.4 35.2 41.6v51.2c0 12.8 6.4 22.4 16 25.6 22.4 12.8 44.8 19.2 67.2 28.8v89.6c0 19.2 16 35.2 38.4 35.2 64-3.2 128-9.6 185.6-28.8s105.6-54.4 140.8-115.2l6.4-3.2c67.2 32 134.4 48 201.6 51.2-28.8-12.8-54.4-28.8-80-51.2-6.4-6.4-12.8-12.8-22.4-22.4-22.4-6.4-48-16-70.4-25.6v-150.4c0-9.6 0-16 0-22.4v-371.2c64 28.8 124.8 41.6 188.8 38.4 60.8 0 118.4-16 179.2-41.6v108.8c3.2 0 6.4 3.2 9.6 3.2 3.2-19.2 12.8-35.2 28.8-51.2l60.8-64v-92.8c0-22.4-19.2-41.6-41.6-41.6l-246.4 3.2zM505.6 108.8c-19.2-3.2-41.6-6.4-60.8-12.8l3.2-160 41.6 35.2c6.4 6.4 16 6.4 22.4 0l51.2-41.6v179.2c-19.2 0-38.4 0-57.6 0v0 0zM19.2 710.4v0c-9.6-3.2-16-6.4-25.6-9.6v-544c64 28.8 124.8 41.6 188.8 38.4 28.8 0 57.6-3.2 86.4-9.6-12.8 9.6-28.8 19.2-48 25.6-44.8 19.2-99.2 32-163.2 35.2v0c-19.2 0-35.2 16-35.2 35.2l-3.2 428.8zM784 464c19.2 19.2 28.8 44.8 28.8 70.4 0 28.8-9.6 57.6-28.8 80v-150.4z" />
<glyph unicode="&#xe916;" glyph-name="certificate" horiz-adv-x="864" d="M844.8 384l92.8-89.6c12.8-12.8 16-28.8 12.8-48-3.2-16-19.2-28.8-35.2-35.2l-124.8-32 35.2-124.8c3.2-16 0-35.2-12.8-48s-28.8-16-48-12.8l-124.8 38.4-32-124.8c-3.2-16-16-28.8-35.2-35.2-3.2 0-9.6 0-12.8 0-12.8 0-25.6 6.4-35.2 16l-89.6 92.8-89.6-92.8c-12.8-12.8-28.8-16-48-12.8-16 3.2-28.8 19.2-35.2 35.2l-32 124.8-124.8-35.2c-16-3.2-35.2 0-48 12.8s-16 28.8-12.8 48l35.2 124.8-124.8 32c-16 3.2-28.8 16-35.2 35.2-3.2 16 0 35.2 12.8 48l102.4 83.2-92.8 89.6c-12.8 12.8-16 28.8-12.8 48 3.2 16 19.2 28.8 35.2 35.2l124.8 32-35.2 121.6c-3.2 16 0 35.2 12.8 48 9.6 9.6 28.8 12.8 44.8 9.6l124.8-35.2 32 124.8c3.2 16 16 28.8 35.2 35.2 16 3.2 35.2 0 48-12.8l89.6-92.8 89.6 92.8c9.6 12.8 25.6 16 44.8 12.8 16-3.2 28.8-16 35.2-35.2l32-124.8 121.6 35.2c16 3.2 35.2 0 48-12.8s16-28.8 12.8-48l-35.2-124.8 124.8-32c16-3.2 28.8-16 35.2-35.2 3.2-16 0-35.2-12.8-48l-92.8-83.2z" />
<glyph unicode="&#xe917;" glyph-name="clipboard" d="M438.848-54.848h512v365.728h-237.728c-30.272 0-54.848 24.576-54.848 54.848v237.728h-219.424v-658.272zM585.152 768v36.576c0 9.728-8.576 18.272-18.272 18.272h-402.272c-9.728 0-18.272-8.576-18.272-18.272v-36.576c0-9.728 8.576-18.272 18.272-18.272h402.272c9.728 0 18.272 8.576 18.272 18.272zM731.424 384h170.848l-170.848 170.848v-170.848zM1024 310.848v-384c0-30.272-24.576-54.848-54.848-54.848h-548.576c-30.272 0-54.848 24.576-54.848 54.848v91.424h-310.848c-30.272 0-54.848 24.576-54.848 54.848v768c0 30.272 24.576 54.848 54.848 54.848h621.728c30.272 0 54.848-24.576 54.848-54.848v-187.424c7.424-4.576 14.272-9.728 20.576-16l233.152-233.152c21.728-21.728 38.848-63.424 38.848-93.728z" />
<glyph unicode="&#xe918;" glyph-name="clock-o" horiz-adv-x="864" d="M524.8 617.6v-297.6c0-12.8-9.6-22.4-22.4-22.4h-214.4c-12.8 0-22.4 9.6-22.4 22.4v41.6c3.2 12.8 12.8 22.4 22.4 22.4h150.4v233.6c0 12.8 9.6 22.4 22.4 22.4h41.6c12.8 0 22.4-9.6 22.4-22.4zM800 384c0 198.4-160 361.6-361.6 361.6s-361.6-163.2-361.6-361.6 163.2-361.6 361.6-361.6 361.6 163.2 361.6 361.6zM950.4 384c0-281.6-230.4-512-512-512s-512 230.4-512 512 230.4 512 512 512 512-230.4 512-512z" />
<glyph unicode="&#xe919;" glyph-name="cog" horiz-adv-x="864" d="M608 384c0 92.8-76.8 169.6-169.6 169.6s-169.6-76.8-169.6-169.6 76.8-169.6 169.6-169.6 169.6 76.8 169.6 169.6zM950.4 457.6v-147.2c0-9.6-6.4-22.4-19.2-25.6l-124.8-19.2c-6.4-22.4-16-41.6-25.6-60.8 22.4-32 48-60.8 70.4-92.8 3.2-3.2 6.4-9.6 6.4-16s-3.2-9.6-6.4-16c-16-22.4-105.6-118.4-128-118.4-6.4 0-12.8 3.2-16 6.4l-92.8 73.6c-19.2-9.6-38.4-19.2-60.8-25.6-3.2-41.6-9.6-83.2-19.2-124.8 0-12.8-9.6-19.2-22.4-19.2h-147.2c-12.8 0-22.4 9.6-25.6 19.2l-19.2 121.6c-19.2 6.4-41.6 16-60.8 25.6l-89.6-70.4c-3.2-3.2-9.6-6.4-16-6.4s-12.8 3.2-19.2 6.4c-35.2 32-83.2 73.6-108.8 112-3.2 3.2-3.2 9.6-3.2 16s3.2 9.6 6.4 16c22.4 32 48 60.8 70.4 92.8-12.8 22.4-19.2 44.8-28.8 67.2l-124.8 16c-9.6 0-19.2 12.8-19.2 22.4v147.2c0 9.6 6.4 22.4 19.2 25.6l124.8 19.2c6.4 22.4 12.8 41.6 25.6 60.8-22.4 32-48 60.8-70.4 92.8-6.4 3.2-9.6 9.6-9.6 16s3.2 9.6 6.4 16c16 22.4 105.6 118.4 128 118.4 6.4 0 12.8-3.2 16-6.4l92.8-70.4c22.4 9.6 41.6 16 60.8 22.4 3.2 41.6 9.6 83.2 19.2 124.8 3.2 12.8 12.8 19.2 25.6 19.2h147.2c12.8 0 22.4-9.6 25.6-19.2l19.2-121.6c19.2-6.4 41.6-16 60.8-25.6l96 70.4c3.2 3.2 9.6 6.4 16 6.4s12.8-3.2 16-6.4c35.2-32 83.2-73.6 108.8-112 3.2-3.2 3.2-9.6 3.2-16s-3.2-9.6-6.4-16c-22.4-32-48-60.8-70.4-92.8 12.8-22.4 19.2-44.8 28.8-64l121.6-19.2c12.8 0 19.2-12.8 19.2-22.4z" />
<glyph unicode="&#xe91a;" glyph-name="comment" d="M1110.4 470.4c0-236.8-268.8-425.6-598.4-425.6-32 0-64 3.2-96 6.4-86.4-76.8-192-131.2-307.2-160-25.6-9.6-51.2-16-76.8-19.2-16 0-28.8 9.6-32 25.6v0c-3.2 16 6.4 25.6 19.2 38.4 41.6 48 89.6 86.4 121.6 198.4-137.6 76.8-224 198.4-224 332.8-3.2 236.8 265.6 428.8 595.2 428.8s598.4-192 598.4-425.6z" />
<glyph unicode="&#xe91b;" glyph-name="comment-o" d="M512 809.6c-278.4 0-512-153.6-512-339.2 0-99.2 67.2-195.2 182.4-259.2l57.6-32-19.2-64c-12.8-51.2-28.8-86.4-44.8-118.4 67.2 28.8 128 67.2 182.4 115.2l28.8 25.6 38.4-3.2c28.8-3.2 57.6-6.4 86.4-6.4 278.4 0 512 156.8 512 342.4s-233.6 339.2-512 339.2v0zM1110.4 470.4c0-236.8-268.8-425.6-598.4-425.6-32 0-64 3.2-96 6.4-86.4-76.8-192-131.2-307.2-160-25.6-12.8-51.2-16-76.8-19.2h-3.2c-12.8 0-25.6 9.6-28.8 25.6v0c-3.2 16 6.4 25.6 19.2 38.4 41.6 48 89.6 86.4 121.6 198.4-137.6 76.8-224 198.4-224 332.8-3.2 236.8 265.6 428.8 595.2 428.8v0c329.6 0 598.4-192 598.4-425.6z" />
<glyph unicode="&#xe91c;" glyph-name="comments" d="M883.2 524.8c0-204.8-230.4-371.2-512-371.2-44.8 0-86.4 3.2-128 12.8-60.8-41.6-128-73.6-201.6-92.8-19.2-6.4-41.6-9.6-64-12.8h-3.2c-9.6 0-22.4 9.6-22.4 22.4v0c-3.2 12.8 6.4 22.4 16 32 28.8 32 60.8 60.8 86.4 121.6-118.4 67.2-192 172.8-192 291.2-3.2 201.6 227.2 368 508.8 368s512-166.4 512-371.2v0zM1164.8 336c0-118.4-76.8-224-192-291.2 25.6-60.8 57.6-89.6 86.4-121.6 6.4-9.6 16-19.2 16-32v0c-9.6-9.6-19.2-19.2-32-19.2-22.4 3.2-41.6 6.4-64 12.8-73.6 19.2-140.8 51.2-201.6 92.8-41.6-6.4-83.2-12.8-128-12.8-131.2 0-252.8 35.2-342.4 96 22.4 0 41.6-3.2 64-3.2 156.8 0 304 44.8 416 128 121.6 89.6 188.8 208 188.8 339.2 0 38.4-6.4 73.6-16 112 124.8-70.4 204.8-179.2 204.8-300.8v0z" />
<glyph unicode="&#xe91d;" glyph-name="comments-o" d="M371.2 803.2c-227.2 0-419.2-128-419.2-278.4 0-80 54.4-156.8 147.2-211.2l70.4-41.6-25.6-60.8c16 9.6 32 19.2 44.8 28.8l32 22.4 41.6-6.4c35.2-6.4 73.6-9.6 112-9.6 227.2 0 419.2 128 419.2 278.4s-195.2 278.4-422.4 278.4v0zM371.2 896c281.6 0 512-166.4 512-371.2s-230.4-371.2-512-371.2c-44.8 0-86.4 3.2-128 12.8-60.8-41.6-128-73.6-201.6-92.8-19.2-6.4-41.6-9.6-64-12.8h-3.2c-9.6 0-22.4 9.6-22.4 22.4v0c-3.2 12.8 6.4 22.4 16 32 28.8 32 60.8 60.8 86.4 121.6-118.4 67.2-192 172.8-192 291.2-3.2 201.6 227.2 368 508.8 368v0zM969.6 44.8c25.6-60.8 57.6-89.6 86.4-121.6 6.4-9.6 16-19.2 16-32v0c-6.4-9.6-16-19.2-28.8-19.2-22.4 3.2-41.6 6.4-64 12.8-73.6 19.2-140.8 51.2-201.6 92.8-41.6-6.4-83.2-12.8-128-12.8-131.2 0-252.8 35.2-342.4 96 22.4 0 41.6-3.2 64-3.2 156.8 0 304 44.8 416 128 121.6 89.6 188.8 208 188.8 339.2 0 38.4-6.4 73.6-16 112 121.6-67.2 201.6-176 201.6-297.6 3.2-121.6-73.6-224-192-294.4v0z" />
<glyph unicode="&#xe91e;" glyph-name="compass" d="M427.168 255.968c0 0 170.656 85.344 170.656 85.344s-170.656 85.344-170.656 85.344c0 0 0-170.656 0-170.656s0-0.032 0-0.032zM683.168 650.016c0 0 0-361.344 0-361.344s-341.344-170.656-341.344-170.656c0 0 0 361.344 0 361.344s341.344 170.656 341.344 170.656zM875.168 384c0 65.792-16.256 126.464-48.672 182.016s-76.448 99.584-132 132c-55.552 32.448-116.224 48.672-182.016 48.672s-126.464-16.256-182.016-48.672c-55.552-32.448-99.584-76.448-132-132s-48.672-116.224-48.672-182.016 16.256-126.464 48.672-182.016c32.448-55.552 76.448-99.584 132-132s116.224-48.672 182.016-48.672c65.792 0 126.464 16.256 182.016 48.672s99.584 76.448 132 132c32.448 55.552 48.672 116.224 48.672 182.016 0 0 0 0 0 0zM1024.512 384c0-92.896-22.88-178.56-68.672-257.024s-107.904-140.576-186.336-186.336c-78.432-45.76-164.128-68.672-256.992-68.672s-178.56 22.88-256.992 68.672c-78.432 45.76-140.576 107.904-186.336 186.336s-68.672 164.128-68.672 256.992 22.88 178.56 68.672 256.992c45.76 78.432 107.904 140.576 186.336 186.336s164.128 68.672 256.992 68.672c92.896 0 178.56-22.88 257.024-68.672s140.576-107.904 186.336-186.336c45.76-78.432 68.672-164.128 68.672-256.992 0 0 0 0 0 0z" />
<glyph unicode="&#xe91f;" glyph-name="cwh" d="M380.8 755.2c-3.2 115.2 147.2 169.6 217.6 76.8 35.2-48 28.8-112-9.6-153.6-6.4-6.4-12.8-12.8-22.4-19.2-12.8-6.4-9.6-9.6-3.2-25.6 86.4 41.6 102.4 163.2 32 227.2-89.6 80-243.2 12.8-233.6-112 6.4 3.2 12.8 6.4 19.2 6.4v0zM787.2-121.6l38.4 86.4-12.8 35.2-35.2 6.4 16 51.2-9.6 25.6-41.6 12.8 19.2 54.4-6.4 22.4-35.2 25.6 16 41.6-6.4 19.2-51.2 44.8 28.8 22.4-19.2 54.4 12.8 3.2-19.2 57.6c51.2 44.8 70.4 115.2 48 179.2-16 44.8-44.8 76.8-83.2 96-9.6-28.8-25.6-51.2-48-70.4l-6.4-6.4c0-12.8-9.6-25.6-19.2-28.8-19.2-3.2-38.4 6.4-44.8 19.2-6.4 16 3.2 35.2 19.2 38.4 9.6 3.2 16 3.2 22.4 0 0 0 0 0 3.2 3.2 16 16 28.8 35.2 38.4 57.6l-16 3.2c-25.6 3.2-51.2 3.2-80-6.4-12.8-6.4-25.6-12.8-38.4-19.2-60.8-41.6-89.6-118.4-67.2-192 6.4-16 12.8-32 25.6-48 25.6-35.2 64-57.6 108.8-67.2l12.8 3.2 6.4-25.6 12.8-38.4 12.8 3.2 144-425.6 44.8-38.4-153.6 476.8 6.4 3.2 156.8-480zM419.2 464c-9.6 12.8-16 25.6-22.4 38.4 0 3.2 0 3.2 0 3.2s0 3.2-3.2 3.2c0 3.2-3.2 9.6-3.2 12.8s0 3.2-3.2 3.2v0c-16 73.6 12.8 153.6 76.8 195.2 9.6 6.4 19.2 12.8 32 16-32 16-67.2 19.2-102.4 12.8-6.4-3.2-12.8-3.2-19.2-6.4-9.6-3.2-19.2-6.4-28.8-12.8-64-38.4-99.2-121.6-73.6-198.4 6.4-25.6 22.4-48 41.6-67.2v0 0l3.2-3.2c3.2-3.2 6.4-6.4 12.8-6.4l-25.6-70.4 16-6.4-80-288-41.6-150.4 22.4-60.8 140.8 489.6 6.4-3.2-137.6-492.8 80 51.2 12.8 44.8-22.4 35.2 35.2 12.8 6.4 19.2-28.8 44.8 48 16 12.8 44.8-25.6 35.2 38.4 12.8 9.6 35.2-3.2 67.2 22.4 3.2 16 64 16-3.2 16 51.2 6.4 19.2 3.2 6.4c-28.8 0-41.6 16-54.4 32v0z" />
<glyph unicode="&#xe920;" glyph-name="envelope" horiz-adv-x="1302" d="M1302.4 566.4v-576c0-64-51.2-115.2-115.2-115.2h-1072c-64 0-115.2 51.2-115.2 115.2v576c22.4-22.4 48-44.8 73.6-64 121.6-83.2 243.2-163.2 361.6-249.6 60.8-44.8 137.6-99.2 217.6-99.2v0c80 0 153.6 54.4 217.6 99.2 118.4 86.4 240 169.6 361.6 249.6 25.6 19.2 48 38.4 70.4 64v0zM1302.4 780.8c0-80-60.8-153.6-124.8-198.4-112-80-227.2-156.8-339.2-236.8-48-32-128-99.2-185.6-99.2v0c-57.6 0-137.6 67.2-185.6 99.2-115.2 76.8-230.4 156.8-342.4 233.6-51.2 35.2-124.8 118.4-124.8 185.6 0 70.4 38.4 131.2 115.2 131.2h1072c64 0 115.2-51.2 115.2-115.2v0z" />
<glyph unicode="&#xe921;" glyph-name="envelope-o" horiz-adv-x="1302" d="M1209.6-12.8v560c-16-16-32-32-51.2-48-105.6-80-208-160-310.4-246.4-54.4-44.8-121.6-102.4-198.4-102.4v0c-76.8 0-144 54.4-198.4 102.4-102.4 83.2-204.8 166.4-310.4 246.4-19.2 16-35.2 32-51.2 48v-560c0-12.8 9.6-22.4 22.4-22.4h1072c16 0 25.6 12.8 25.6 22.4zM1209.6 752c0 19.2 3.2 51.2-22.4 51.2h-1072c-12.8 0-22.4-9.6-22.4-22.4 0-83.2 41.6-153.6 105.6-208 96-76.8 195.2-153.6 291.2-230.4 38.4-32 108.8-99.2 160-99.2v0c51.2 0 121.6 67.2 160 99.2 96 76.8 195.2 153.6 291.2 230.4 51.2 38.4 108.8 118.4 108.8 179.2v0zM1302.4 780.8v-790.4c0-64-51.2-115.2-115.2-115.2h-1072c-64 0-115.2 51.2-115.2 115.2v790.4c0 64 51.2 115.2 115.2 115.2h1072c64 0 115.2-51.2 115.2-115.2z" />
<glyph unicode="&#xe922;" glyph-name="exclamation-circle" d="M512 896c281.6 0 512-230.4 512-512s-230.4-512-512-512-512 230.4-512 512 230.4 512 512 512zM598.4 64v128c0 12.8-9.6 22.4-19.2 22.4h-128c-12.8 0-22.4-9.6-22.4-22.4v-128c0-12.8 9.6-22.4 22.4-22.4h128c9.6 0 19.2 9.6 19.2 22.4zM595.2 294.4l12.8 412.8c0 3.2-3.2 9.6-6.4 12.8s-9.6 6.4-16 6.4h-147.2c-6.4 0-12.8-3.2-16-6.4s-6.4-6.4-6.4-12.8l12.8-412.8c0-9.6 9.6-16 22.4-16h124.8c9.6 0 19.2 6.4 19.2 16v0z" />
<glyph unicode="&#xe923;" glyph-name="exclamation-triangle" horiz-adv-x="1104" d="M630.4 51.2v118.4c0 9.6-9.6 19.2-19.2 19.2h-118.4c-9.6 0-19.2-9.6-19.2-19.2v-118.4c0-9.6 9.6-19.2 19.2-19.2h118.4c9.6-3.2 19.2 6.4 19.2 19.2zM630.4 278.4l9.6 281.6c0 3.2-3.2 9.6-6.4 12.8s-9.6 6.4-16 6.4h-134.4c-6.4 0-9.6-3.2-16-6.4-3.2-3.2-6.4-9.6-6.4-12.8l9.6-281.6c0-6.4 9.6-12.8 22.4-12.8h115.2c9.6 0 19.2 6.4 22.4 12.8v0zM620.8 854.4l473.6-867.2c12.8-22.4 12.8-54.4 0-76.8-16-22.4-41.6-38.4-70.4-38.4h-944c-28.8 0-54.4 16-67.2 38.4s-16 54.4 0 76.8l470.4 867.2c12.8 25.6 38.4 41.6 67.2 41.6s57.6-16 70.4-41.6v0z" />
<glyph unicode="&#xe924;" glyph-name="feed" d="M278.4 12.8c0-76.8-64-140.8-140.8-140.8s-137.6 64-137.6 140.8 64 140.8 140.8 140.8 137.6-64 137.6-140.8zM652.8-76.8c0-12.8-3.2-25.6-12.8-35.2s-22.4-16-35.2-16h-99.2c-22.4 0-44.8 19.2-44.8 41.6-22.4 220.8-198.4 396.8-419.2 419.2-22.4 3.2-41.6 22.4-41.6 44.8v99.2c0 12.8 6.4 25.6 16 35.2 6.4 6.4 19.2 12.8 32 12.8h3.2c153.6-12.8 300.8-80 409.6-192 112-108.8 179.2-256 192-409.6v0zM1024-80c0-12.8-3.2-25.6-12.8-35.2s-19.2-16-32-16h-105.6c-25.6 0-44.8 19.2-48 44.8-22.4 425.6-358.4 761.6-780.8 787.2-25.6 0-44.8 19.2-44.8 44.8v102.4c0 12.8 6.4 25.6 16 32 6.4 12.8 19.2 16 32 16h3.2c256-12.8 492.8-118.4 675.2-300.8 179.2-179.2 284.8-419.2 297.6-675.2v0z" />
<glyph unicode="&#xe925;" glyph-name="file" horiz-adv-x="877" d="M585.6 604.8v268.8c6.4-6.4 16-9.6 19.2-16l233.6-233.6c6.4-6.4 9.6-12.8 16-19.2h-268.8zM512 585.6c0-28.8 25.6-54.4 54.4-54.4h310.4v-604.8c0-28.8-25.6-54.4-54.4-54.4h-768c-28.8 0-54.4 25.6-54.4 54.4v915.2c0 28.8 25.6 54.4 54.4 54.4h457.6c0 0 0-310.4 0-310.4z" />
<glyph unicode="&#xe926;" glyph-name="file-o" horiz-adv-x="864" d="M838.848 678.848c21.152-21.152 38.848-63.424 38.848-93.728v-658.272c0-30.272-24.576-54.848-54.848-54.848h-768c-30.272 0-54.848 24.576-54.848 54.848v914.272c0 30.272 24.576 54.848 54.848 54.848h512c30.272 0 72.576-17.728 93.728-38.848zM585.152 818.272v-214.848h214.848c-3.424 9.728-8.576 19.424-12.576 23.424l-178.848 178.848c-4 4-13.728 9.152-23.424 12.576zM804.576-54.848v585.152h-237.728c-30.272 0-54.848 24.576-54.848 54.848v237.728h-438.848v-877.728h731.424z" />
<glyph unicode="&#xe927;" glyph-name="file-text" horiz-adv-x="877" d="M838.4 624c6.4-6.4 9.6-12.8 16-19.2h-268.8v268.8c6.4-6.4 16-9.6 19.2-16l233.6-233.6zM566.4 531.2h310.4v-604.8c0-28.8-25.6-54.4-54.4-54.4h-768c-28.8 0-54.4 25.6-54.4 54.4v915.2c0 28.8 25.6 54.4 54.4 54.4h457.6v-310.4c0-32 25.6-54.4 54.4-54.4zM659.2 108.8v35.2c0 9.6-6.4 19.2-19.2 19.2h-403.2c-9.6 0-19.2-6.4-19.2-19.2v-35.2c0-9.6 6.4-19.2 19.2-19.2h403.2c9.6 3.2 19.2 9.6 19.2 19.2zM659.2 256v35.2c0 9.6-6.4 19.2-19.2 19.2h-403.2c-9.6 0-19.2-6.4-19.2-19.2v-35.2c0-9.6 6.4-19.2 19.2-19.2h403.2c9.6 0 19.2 9.6 19.2 19.2zM659.2 403.2v35.2c0 9.6-6.4 19.2-19.2 19.2h-403.2c-9.6 0-19.2-6.4-19.2-19.2v-35.2c0-9.6 6.4-19.2 19.2-19.2h403.2c9.6 0 19.2 6.4 19.2 19.2z" />
<glyph unicode="&#xe928;" glyph-name="file-text-o" horiz-adv-x="877" d="M838.4 678.4c22.4-22.4 38.4-64 38.4-92.8v-659.2c0-28.8-25.6-54.4-54.4-54.4h-768c-28.8 0-54.4 25.6-54.4 54.4v915.2c0 28.8 25.6 54.4 54.4 54.4h512c28.8 0 73.6-19.2 92.8-38.4l179.2-179.2zM585.6 819.2v-214.4h214.4c-3.2 9.6-9.6 19.2-12.8 22.4l-179.2 179.2c-3.2 3.2-12.8 9.6-22.4 12.8zM803.2-54.4v585.6h-236.8c-28.8 0-54.4 25.6-54.4 54.4v236.8h-438.4v-876.8c0 0 729.6 0 729.6 0zM220.8 438.4c0 9.6 6.4 19.2 19.2 19.2h400c9.6 0 19.2-6.4 19.2-19.2v-35.2c0-9.6-6.4-19.2-19.2-19.2h-403.2c-9.6 0-19.2 6.4-19.2 19.2 3.2 0 3.2 35.2 3.2 35.2zM640 310.4c9.6 0 19.2-6.4 19.2-19.2v-35.2c0-9.6-6.4-19.2-19.2-19.2h-403.2c-9.6 0-19.2 6.4-19.2 19.2v35.2c0 9.6 6.4 19.2 19.2 19.2h403.2zM640 163.2c9.6 0 19.2-6.4 19.2-19.2v-35.2c0-9.6-6.4-19.2-19.2-19.2h-403.2c-9.6 0-19.2 6.4-19.2 19.2v35.2c0 9.6 6.4 19.2 19.2 19.2h403.2z" />
<glyph unicode="&#xe929;" glyph-name="flag" horiz-adv-x="1149" d="M169.6 809.6c0-32-16-57.6-41.6-73.6v-841.6c0-12.8-9.6-22.4-22.4-22.4h-41.6c-12.8 0-22.4 9.6-22.4 22.4v844.8c-25.6 12.8-41.6 41.6-41.6 70.4 0 48 38.4 86.4 86.4 86.4s83.2-38.4 83.2-86.4v0zM1148.8 768v-505.6c0-25.6-16-35.2-35.2-44.8-73.6-41.6-156.8-76.8-246.4-76.8-121.6 0-179.2 92.8-326.4 92.8-105.6 0-217.6-48-307.2-96-6.4-3.2-12.8-6.4-22.4-6.4-22.4 0-41.6 19.2-41.6 41.6v492.8c0 16 9.6 28.8 22.4 38.4 16 9.6 35.2 19.2 51.2 28.8 83.2 41.6 185.6 80 278.4 80 105.6 0 185.6-35.2 278.4-76.8 19.2-9.6 38.4-12.8 57.6-12.8 105.6 0 217.6 89.6 246.4 89.6 25.6-3.2 44.8-22.4 44.8-44.8v0z" />
<glyph unicode="&#xe92a;" glyph-name="flag-o" horiz-adv-x="1056" d="M950.848 372v352c-45.728-24.576-109.728-52-174.848-52v0c-30.272 0-58.272 5.728-82.848 18.272-61.152 30.272-127.424 59.424-206.848 59.424-73.728 0-164-36-230.272-72.576v-342.272c75.424 34.848 171.424 64.576 247.424 64.576 88 0 145.152-29.152 206.272-59.424l16-8c16-8 35.424-12.576 57.728-12.576 63.424 0 132 33.728 167.424 52.576zM182.848 822.848c0-26.848-14.848-50.272-36.576-62.848v-723.424c0-10.272-8-18.272-18.272-18.272h-36.576c-10.272 0-18.272 8-18.272 18.272v723.424c-21.728 12.576-36.576 36-36.576 62.848 0 40.576 32.576 73.152 73.152 73.152s73.152-32.576 73.152-73.152zM1024 786.272v-436c0-13.728-8-26.272-20-32.576-2.272-1.152-5.728-2.848-9.728-5.152-36.576-19.424-122.848-66.272-210.848-66.272-33.728 0-64 6.848-90.272 20l-16 8c-57.728 29.152-103.424 52-173.728 52-82.272 0-198.272-42.848-265.152-83.424-5.728-3.424-12.576-5.152-18.848-5.152s-12.576 1.728-18.272 4.576c-11.424 6.848-18.272 18.848-18.272 32v424c0 12.576 6.848 24.576 17.728 31.424 36.576 21.728 165.728 93.152 285.728 93.152 95.424 0 173.152-34.848 238.848-66.848 14.848-7.424 32-10.848 50.848-10.848 67.424 0 141.728 42.848 177.152 64 7.424 4 13.728 7.424 17.728 9.728 11.424 5.728 24.576 5.152 35.424-1.152 10.848-6.848 17.728-18.848 17.728-31.424z" />
<glyph unicode="&#xe92b;" glyph-name="floppy-o" d="M256-41.6h512v256h-512c0 0 0-256 0-256zM851.2-41.6h86.4v595.2c0 12.8-12.8 38.4-19.2 48l-185.6 185.6c-9.6 9.6-35.2 19.2-48 19.2v-278.4c0-35.2-28.8-64-64-64h-384c-35.2 0-64 28.8-64 64v281.6h-86.4v-851.2h86.4v278.4c0 35.2 28.8 64 64 64h553.6c35.2 0 64-28.8 64-64l-3.2-278.4zM595.2 576v214.4c0 12.8-9.6 22.4-22.4 22.4h-128c-12.8 0-22.4-9.6-22.4-22.4v-214.4c0-12.8 9.6-22.4 22.4-22.4h128c12.8 0 22.4 12.8 22.4 22.4zM1024 553.6v-617.6c0-35.2-28.8-64-64-64h-896c-35.2 0-64 28.8-64 64v896c0 35.2 28.8 64 64 64h617.6c35.2 0 83.2-19.2 108.8-44.8l185.6-185.6c25.6-25.6 48-76.8 48-112z" />
<glyph unicode="&#xe92c;" glyph-name="folder" horiz-adv-x="1210" d="M1209.6 547.2v-512c0-89.6-73.6-163.2-163.2-163.2h-883.2c-89.6 0-163.2 73.6-163.2 163.2v697.6c0 89.6 73.6 163.2 163.2 163.2h233.6c89.6 0 163.2-73.6 163.2-163.2v-22.4h489.6c86.4 0 160-73.6 160-163.2v0z" />
<glyph unicode="&#xe92d;" glyph-name="folder-o" horiz-adv-x="1210" d="M1116.8 35.2v512c0 38.4-32 70.4-70.4 70.4h-512c-38.4 0-70.4 32-70.4 70.4v44.8c0 38.4-32 70.4-70.4 70.4h-230.4c-38.4 0-70.4-32-70.4-70.4v-697.6c0-38.4 32-70.4 70.4-70.4h883.2c38.4 0 70.4 32 70.4 70.4v0zM1209.6 547.2v-512c0-89.6-73.6-163.2-163.2-163.2h-883.2c-89.6 0-163.2 73.6-163.2 163.2v697.6c0 89.6 73.6 163.2 163.2 163.2h233.6c89.6 0 163.2-73.6 163.2-163.2v-22.4h489.6c86.4 0 160-73.6 160-163.2v0z" />
<glyph unicode="&#xe92e;" glyph-name="folder-open" horiz-adv-x="1366" d="M1366.4 297.6c0-16-9.6-35.2-22.4-48l-243.2-288c-41.6-48-128-89.6-192-89.6h-793.6c-25.6 0-64 6.4-64 41.6 0 16 9.6 35.2 22.4 48l243.2 288c41.6 48 128 89.6 192 89.6h790.4c28.8-3.2 67.2-9.6 67.2-41.6zM1116.8 547.2v-115.2h-604.8c-89.6 0-204.8-51.2-262.4-121.6l-249.6-294.4c0 6.4 0 12.8 0 19.2v697.6c0 89.6 73.6 163.2 163.2 163.2h233.6c89.6 0 163.2-73.6 163.2-163.2v-22.4h396.8c86.4 0 160-73.6 160-163.2z" />
<glyph unicode="&#xe92f;" glyph-name="folder-open-o" horiz-adv-x="1389" d="M1296 313.6c0 19.2-22.4 25.6-38.4 25.6h-793.6c-38.4 0-89.6-22.4-115.2-54.4l-214.4-262.4c-6.4-9.6-12.8-19.2-12.8-28.8 0-19.2 22.4-25.6 38.4-25.6h790.4c38.4 0 89.6 22.4 115.2 54.4l214.4 262.4c9.6 6.4 16 16 16 28.8zM464 432h560v115.2c0 38.4-32 70.4-70.4 70.4h-419.2c-38.4 0-70.4 32-70.4 70.4v44.8c0 38.4-32 70.4-70.4 70.4h-230.4c-38.4 0-70.4-32-70.4-70.4v-620.8l185.6 230.4c41.6 51.2 121.6 89.6 185.6 89.6zM1388.8 313.6c0-32-12.8-64-32-86.4l-214.4-262.4c-41.6-51.2-121.6-89.6-185.6-89.6h-793.6c-89.6-3.2-163.2 70.4-163.2 160v697.6c0 89.6 73.6 163.2 163.2 163.2h233.6c89.6 0 163.2-73.6 163.2-163.2v-22.4h396.8c89.6 0 163.2-73.6 163.2-163.2v-115.2h140.8c48 0 99.2-22.4 121.6-70.4 3.2-16 6.4-32 6.4-48v0z" />
<glyph unicode="&#xe930;" glyph-name="gears" horiz-adv-x="1098" d="M512 393.6c0 80-67.2 147.2-147.2 147.2s-147.2-67.2-147.2-147.2 67.2-147.2 147.2-147.2 147.2 67.2 147.2 147.2zM950.4 99.2c0 38.4-32 73.6-73.6 73.6s-73.6-32-73.6-73.6c0-41.6 32-73.6 73.6-73.6 41.6 3.2 73.6 35.2 73.6 73.6zM950.4 684.8c0 38.4-32 73.6-73.6 73.6s-73.6-32-73.6-73.6c0-41.6 32-73.6 73.6-73.6s73.6 35.2 73.6 73.6zM732.8 444.8v-105.6c0-6.4-6.4-16-12.8-16l-89.6-12.8c-3.2-16-9.6-28.8-19.2-44.8 16-22.4 32-44.8 51.2-67.2 3.2-3.2 3.2-6.4 3.2-12.8 0-3.2 0-6.4-3.2-9.6-12.8-16-76.8-86.4-92.8-86.4-3.2 0-9.6 3.2-12.8 3.2l-67.2 51.2c-12.8-6.4-28.8-12.8-44.8-19.2-3.2-28.8-6.4-60.8-12.8-89.6-3.2-6.4-9.6-12.8-16-12.8h-102.4c-6.4 0-16 6.4-16 12.8l-16 92.8c-16 3.2-28.8 9.6-41.6 19.2l-67.2-51.2c-3.2-3.2-6.4-3.2-12.8-3.2-3.2 0-9.6 3.2-12.8 3.2-16 12.8-83.2 73.6-83.2 92.8 0 3.2 3.2 6.4 3.2 9.6 16 22.4 35.2 41.6 51.2 64-6.4 16-16 32-19.2 48l-86.4 12.8c-6.4 0-12.8 9.6-12.8 16v108.8c0 6.4 6.4 16 12.8 16l89.6 12.8c3.2 16 9.6 28.8 19.2 44.8-16 22.4-32 44.8-51.2 67.2-3.2 0-6.4 6.4-6.4 9.6s0 6.4 3.2 12.8c12.8 12.8 76.8 83.2 92.8 83.2 3.2 0 9.6-3.2 12.8-3.2l64-51.2c12.8 6.4 28.8 12.8 44.8 19.2 3.2 25.6 6.4 57.6 12.8 86.4 3.2 6.4 9.6 12.8 16 12.8h105.6c6.4 0 16-6.4 16-12.8l16-89.6c16-3.2 28.8-9.6 41.6-19.2l67.2 51.2c3.2 3.2 6.4 3.2 12.8 3.2 3.2 0 9.6-3.2 12.8-3.2 16-12.8 83.2-76.8 83.2-92.8 0-3.2-3.2-6.4-3.2-9.6-16-22.4-35.2-41.6-51.2-64 6.4-16 12.8-32 19.2-48l86.4-12.8c9.6 0 16-6.4 16-16v0zM1097.6 140.8v-80c0-9.6-73.6-16-86.4-19.2-3.2-9.6-9.6-19.2-16-28.8 6.4-12.8 28.8-67.2 28.8-80 0-3.2 0-3.2-3.2-3.2-6.4-3.2-67.2-41.6-70.4-41.6-6.4 0-51.2 57.6-57.6 67.2-6.4 0-12.8 0-16 0s-12.8 0-16 0c-6.4-9.6-48-67.2-57.6-67.2-3.2 0-64 35.2-70.4 41.6-3.2 0-3.2 3.2-3.2 3.2 0 9.6 25.6 67.2 28.8 80-6.4 9.6-12.8 19.2-16 28.8-12.8 0-86.4 9.6-86.4 19.2v80c0 9.6 73.6 16 86.4 19.2 3.2 9.6 9.6 19.2 16 28.8-6.4 12.8-28.8 70.4-28.8 80 0 0 0 3.2 3.2 3.2 6.4 3.2 67.2 38.4 70.4 38.4 6.4 0 51.2-57.6 57.6-64 6.4 0 12.8 0 16 0s12.8 0 16 0c16 22.4 32 44.8 51.2 64h3.2c3.2 0 64-35.2 70.4-38.4 3.2 0 3.2-3.2 3.2-3.2 0-9.6-25.6-67.2-28.8-80 6.4-9.6 12.8-19.2 16-28.8 16-3.2 89.6-9.6 89.6-19.2zM1097.6 726.4v-80c0-9.6-73.6-16-86.4-19.2-3.2-9.6-9.6-19.2-16-28.8 6.4-12.8 28.8-67.2 28.8-80 0-3.2 0-3.2-3.2-3.2-6.4-3.2-67.2-41.6-70.4-41.6-6.4 0-51.2 57.6-57.6 67.2-6.4 0-12.8 0-16 0s-12.8 0-16 0c-6.4-9.6-48-67.2-57.6-67.2-3.2 0-64 35.2-70.4 41.6-3.2 0-3.2 3.2-3.2 3.2 0 9.6 25.6 67.2 28.8 80-6.4 9.6-12.8 19.2-16 28.8-12.8 0-86.4 9.6-86.4 19.2v80c0 9.6 73.6 16 86.4 19.2 3.2 9.6 9.6 19.2 16 28.8-6.4 12.8-28.8 70.4-28.8 80 0 0 0 3.2 3.2 3.2 6.4 3.2 70.4 38.4 70.4 38.4 6.4 0 51.2-57.6 57.6-64 6.4 0 12.8 0 16 0s12.8 0 16 0c16 22.4 32 44.8 51.2 64h3.2c3.2 0 64-35.2 70.4-38.4s6.4-3.2 6.4-6.4c0-9.6-25.6-67.2-28.8-80 6.4-9.6 12.8-19.2 16-28.8 12.8 0 86.4-9.6 86.4-16z" />
<glyph unicode="&#xe931;" glyph-name="group" horiz-adv-x="1098" d="M339.2 384c-60.8-3.2-112-28.8-150.4-73.6h-76.8c-57.6 0-112 28.8-112 89.6 0 48-3.2 204.8 70.4 204.8 12.8 0 70.4-48 147.2-48 25.6 0 51.2 3.2 76.8 12.8-3.2-12.8-3.2-25.6-3.2-38.4 0-54.4 19.2-105.6 48-147.2zM950.4 19.2c0-92.8-60.8-147.2-153.6-147.2h-499.2c-92.8 0-153.6 54.4-153.6 147.2 0 128 28.8 326.4 198.4 326.4 19.2 0 89.6-80 204.8-80s185.6 80 204.8 80c169.6 3.2 198.4-195.2 198.4-326.4v0zM364.8 748.8c0-80-67.2-147.2-147.2-147.2s-144 67.2-144 147.2 64 147.2 147.2 147.2 144-67.2 144-147.2zM768 531.2c0-121.6-99.2-220.8-220.8-220.8s-220.8 99.2-220.8 220.8 99.2 220.8 220.8 220.8 220.8-99.2 220.8-220.8zM1097.6 403.2c0-64-54.4-89.6-112-89.6h-76.8c-38.4 44.8-92.8 70.4-150.4 73.6 28.8 41.6 44.8 92.8 44.8 147.2 0 12.8 0 25.6-3.2 38.4 25.6-9.6 51.2-12.8 76.8-12.8 76.8 0 137.6 48 147.2 48 73.6-3.2 73.6-160 73.6-204.8zM1024 748.8c0-80-67.2-147.2-147.2-147.2s-147.2 67.2-147.2 147.2 67.2 147.2 147.2 147.2 147.2-67.2 147.2-147.2z" />
<glyph unicode="&#xe932;" glyph-name="image" horiz-adv-x="1280" d="M425.6 598.4c0-70.4-57.6-128-128-128s-128 57.6-128 128 57.6 128 128 128 128-57.6 128-128zM1110.4 342.4v-297.6h-940.8v128l214.4 211.2 105.6-105.6 342.4 339.2 278.4-275.2zM1174.4 809.6h-1068.8c-9.6 0-19.2-9.6-19.2-19.2v-809.6c0-12.8 9.6-22.4 22.4-22.4h1065.6c12.8 0 22.4 9.6 22.4 22.4v809.6c-3.2 9.6-12.8 19.2-22.4 19.2zM1280 790.4v-809.6c0-57.6-48-105.6-105.6-105.6h-1068.8c-57.6-3.2-105.6 44.8-105.6 102.4v812.8c0 57.6 48 105.6 105.6 105.6h1065.6c60.8 0 108.8-48 108.8-105.6z" />
<glyph unicode="&#xe933;" glyph-name="info-circle" d="M681.6 64v105.6c0 12.8-9.6 22.4-22.4 22.4h-64v342.4c0 12.8-9.6 22.4-22.4 22.4h-214.4c-12.8 0-22.4-9.6-22.4-22.4v-105.6c0-12.8 9.6-22.4 22.4-22.4h64v-214.4h-64c-12.8 0-22.4-9.6-22.4-22.4v-105.6c0-12.8 9.6-22.4 22.4-22.4h297.6c16 0 25.6 9.6 25.6 22.4v0zM598.4 662.4v105.6c0 12.8-9.6 22.4-22.4 22.4h-128c-12.8 0-22.4-9.6-22.4-22.4v-105.6c0-12.8 9.6-22.4 22.4-22.4h128c12.8 0 22.4 9.6 22.4 22.4zM1024 384c0-281.6-230.4-512-512-512s-512 230.4-512 512 230.4 512 512 512 512-230.4 512-512z" />
<glyph unicode="&#xe934;" glyph-name="inforeq" horiz-adv-x="1034" d="M934.4 92.8c57.6 83.2 89.6 182.4 89.6 291.2 0 281.6-230.4 512-512 512s-512-227.2-512-512c0-281.6 230.4-512 512-512 115.2 0 227.2 38.4 313.6 105.6l208-102.4-99.2 217.6zM518.4 704c38.4 0 67.2-28.8 67.2-67.2s-28.8-67.2-67.2-67.2c-38.4 0-67.2 28.8-67.2 67.2s32 67.2 67.2 67.2zM595.2 112h-192v51.2h51.2v288h-51.2v51.2h192v-390.4z" />
<glyph unicode="&#xe935;" glyph-name="key" horiz-adv-x="960" d="M475.424 676.576c0 60.576-49.152 109.728-109.728 109.728s-109.728-49.152-109.728-109.728c0-16.576 4-32.576 10.848-47.424-14.848 6.848-30.848 10.848-47.424 10.848-60.576 0-109.728-49.152-109.728-109.728s49.152-109.728 109.728-109.728 109.728 49.152 109.728 109.728c0 16.576-4 32.576-10.848 47.424 14.848-6.848 30.848-10.848 47.424-10.848 60.576 0 109.728 49.152 109.728 109.728zM961.728 274.272c0-13.152-52.576-65.728-65.728-65.728-14.848 0-61.152 53.728-73.152 65.728l-54.848-54.848 125.728-125.728c10.272-10.272 16-24.576 16-38.848 0-32-36.576-68.576-68.576-68.576-14.272 0-28.576 5.728-38.848 16l-383.424 383.424c-60-44.576-133.152-74.848-208.576-74.848-124.576 0-210.272 86.272-210.272 210.272 0 187.424 187.424 374.848 374.848 374.848 124 0 210.272-85.728 210.272-210.272 0-75.424-30.272-148.576-74.848-208.576l202.848-202.848 54.848 54.848c-12 12-65.728 58.272-65.728 73.152 0 13.152 52.576 65.728 65.728 65.728 4.576 0 9.728-2.272 13.152-5.728 21.152-21.152 180.576-171.424 180.576-188z" />
<glyph unicode="&#xe936;" glyph-name="leanpub" horiz-adv-x="1498" d="M1385.6 803.2l112-931.2c-67.2 0-128 12.8-188.8 41.6-92.8 41.6-185.6 67.2-288 67.2s-198.4-35.2-275.2-108.8c-73.6 73.6-169.6 108.8-275.2 108.8-102.4 0-195.2-25.6-288-67.2-54.4-25.6-115.2-41.6-179.2-41.6h-3.2l112 931.2c105.6 57.6 233.6 92.8 355.2 92.8 99.2 0 201.6-19.2 284.8-76.8 80 57.6 182.4 76.8 281.6 76.8 118.4 0 246.4-35.2 352-92.8zM1024 80c137.6 0 233.6-38.4 361.6-89.6l-92.8 748.8c-83.2 38.4-179.2 57.6-268.8 57.6-102.4 0-198.4-32-275.2-102.4-76.8 70.4-172.8 102.4-275.2 102.4-89.6 0-188.8-19.2-268.8-57.6l-89.6-748.8c124.8 51.2 220.8 89.6 361.6 89.6 99.2 0 188.8-25.6 275.2-80 83.2 54.4 169.6 80 272 80v0zM1052.8 105.6l-41.6 662.4c-105.6-3.2-188.8-38.4-262.4-112-76.8 76.8-163.2 112-272 112-83.2 0-169.6-16-246.4-48l-83.2-688c112 44.8 208 73.6 329.6 73.6 96 0 192-22.4 275.2-73.6 83.2 51.2 176 76.8 275.2 73.6h25.6z" />
<glyph unicode="&#xe937;" glyph-name="lightbulb-o" horiz-adv-x="682" d="M489.6 598.4c0-12.8-9.6-22.4-22.4-22.4s-19.2 9.6-19.2 22.4c0 44.8-70.4 64-105.6 64-12.8 0-22.4 9.6-22.4 19.2s9.6 22.4 22.4 22.4c60.8 0 147.2-32 147.2-105.6v0zM598.4 598.4c0 134.4-134.4 214.4-256 214.4s-256-80-256-214.4c0-41.6 16-86.4 44.8-118.4 12.8-16 28.8-28.8 41.6-44.8 48-57.6 86.4-124.8 92.8-198.4h150.4c6.4 76.8 48 140.8 92.8 198.4 12.8 16 28.8 28.8 41.6 44.8 28.8 28.8 48 73.6 48 118.4v0zM681.6 598.4c0-67.2-22.4-128-67.2-179.2s-105.6-121.6-112-192c19.2-12.8 32-32 32-54.4 0-16-6.4-32-16-41.6 9.6-12.8 16-25.6 16-41.6 0-22.4-12.8-41.6-28.8-54.4 6.4-9.6 9.6-19.2 9.6-32 0-44.8-35.2-64-73.6-64-16-38.4-57.6-64-99.2-64s-80 25.6-99.2 64c-38.4 0-73.6 19.2-73.6 64 0 9.6 3.2 22.4 9.6 32-19.2 12.8-28.8 32-28.8 54.4 0 16 6.4 32 16 41.6-9.6 12.8-16 25.6-16 41.6 0 22.4 12.8 44.8 32 54.4-6.4 70.4-67.2 144-112 192s-70.4 108.8-70.4 179.2c0 179.2 172.8 297.6 342.4 297.6s339.2-118.4 339.2-297.6z" />
<glyph unicode="&#xe938;" glyph-name="linentita" horiz-adv-x="1152" d="M889.6 332.8c0 0-3.2 0 0 0-3.2 118.4-3.2 272-3.2 272s6.4 54.4-44.8 86.4c-54.4 28.8-342.4 195.2-342.4 195.2s-44.8 22.4-86.4 0l-339.2-201.6c0 0-41.6-25.6-41.6-48s0-416 0-416 6.4-41.6 25.6-57.6c22.4-16 374.4-214.4 374.4-214.4s19.2-12.8 48 0c12.8 6.4 99.2 54.4 185.6 102.4 22.4-102.4 115.2-179.2 224-179.2 128 0 230.4 102.4 230.4 230.4s-102.4 230.4-230.4 230.4v0zM390.4 105.6l-240 137.6v278.4l240-137.6v-278.4zM457.6 492.8l-243.2 134.4 240 137.6 243.2-137.6-240-134.4zM675.2 192l-156.8-89.6v281.6l240 137.6v-224c-28.8-25.6-67.2-64-83.2-105.6zM1036.8 6.4c0-6.4-3.2-12.8-6.4-19.2-6.4-6.4-9.6-6.4-19.2-6.4h-243.2c-6.4 0-12.8 3.2-19.2 6.4-6.4 6.4-6.4 9.6-6.4 19.2v198.4c0 6.4 3.2 12.8 6.4 19.2 6.4 6.4 12.8 6.4 19.2 6.4h243.2c6.4 0 12.8 0 19.2-6.4s6.4-9.6 6.4-19.2v-198.4z" />
<glyph unicode="&#xe939;" glyph-name="linmodulo" horiz-adv-x="1152" d="M1027.2 339.2c-3.2 3.2-16 6.4-25.6 12.8 0 102.4 0 204.8 0 204.8s-3.2 38.4-25.6 51.2c-25.6 12.8-105.6 60.8-179.2 105.6 0 19.2 0 32 0 32s3.2 28.8-22.4 44.8c-28.8 16-176 99.2-176 99.2s-22.4 12.8-44.8 0l-176-102.4c0 0-22.4-12.8-22.4-25.6 0-3.2 0-22.4 0-48l-188.8-112c0 0-19.2-12.8-19.2-32 0-9.6 0-115.2 0-217.6l-25.6-16c0 0-22.4-12.8-22.4-25.6s0-211.2 0-211.2 3.2-22.4 12.8-28.8c12.8-9.6 192-108.8 192-108.8s9.6-6.4 25.6 0c3.2 3.2 19.2 9.6 38.4 19.2 89.6-51.2 179.2-102.4 179.2-102.4s19.2-12.8 48 0c12.8 6.4 99.2 54.4 182.4 102.4 22.4-12.8 38.4-22.4 38.4-22.4s9.6-6.4 25.6 0 192 108.8 192 108.8 16 9.6 16 22.4 0 204.8 0 204.8 3.2 28.8-22.4 44.8v0zM572.8 828.8l121.6-70.4-121.6-70.4-121.6 70.4c0 0 121.6 70.4 121.6 70.4zM729.6 704v-140.8l-121.6-73.6v144l121.6 70.4zM419.2 704l121.6-70.4v-140.8l-121.6 70.4c0-3.2 0 140.8 0 140.8zM288 38.4l-131.2 70.4v140.8l131.2-67.2v-144zM316.8 236.8l-124.8 70.4 121.6 70.4 121.6-70.4-118.4-70.4zM342.4 38.4v140.8l131.2 70.4v-140.8l-131.2-70.4zM572.8-57.6l-134.4 80c44.8 25.6 80 48 80 48s12.8 9.6 12.8 22.4c0 12.8 0 204.8 0 204.8s6.4 28.8-22.4 44.8c-28.8 16-172.8 99.2-172.8 99.2s-25.6 12.8-44.8 0l-80-48v166.4l140.8 80c0-48 0-89.6 0-89.6s3.2-22.4 16-28.8c12.8-9.6 192-108.8 192-108.8s9.6-6.4 25.6 0c16 6.4 195.2 108.8 195.2 108.8s16 9.6 16 22.4c0 6.4 0 51.2 0 96l140.8-80v-163.2c-48 25.6-83.2 48-83.2 48s-25.6 12.8-44.8 0l-169.6-102.4c0 0-19.2-12.8-19.2-25.6 0-9.6 0-211.2 0-211.2s0-22.4 12.8-28.8c3.2-3.2 44.8-25.6 83.2-51.2l-144-83.2zM982.4 105.6c0-6.4-3.2-16-6.4-19.2s-12.8-9.6-19.2-9.6h-236.8c-6.4 0-12.8 3.2-19.2 9.6s-9.6 12.8-9.6 19.2v192c0 6.4 3.2 16 9.6 22.4s12.8 9.6 19.2 9.6h236.8c6.4 0 12.8-3.2 19.2-9.6s6.4-12.8 6.4-22.4c0 0 0-192 0-192z" />
<glyph unicode="&#xe93a;" glyph-name="lock" horiz-adv-x="838" d="M233.6 432h371.2v140.8c0 102.4-83.2 185.6-185.6 185.6s-185.6-86.4-185.6-188.8v-137.6zM838.4 361.6v-419.2c0-38.4-32-70.4-70.4-70.4h-697.6c-38.4 0-70.4 32-70.4 70.4v419.2c0 38.4 32 70.4 70.4 70.4h22.4v140.8c0 176 147.2 323.2 326.4 323.2s326.4-147.2 326.4-326.4v-140.8h22.4c38.4 3.2 70.4-28.8 70.4-67.2v0z" />
<glyph unicode="&#xe93b;" glyph-name="map-marker" horiz-adv-x="682" d="M512 553.6c0 92.8-76.8 169.6-169.6 169.6s-169.6-76.8-169.6-169.6 73.6-169.6 169.6-169.6 169.6 76.8 169.6 169.6zM681.6 553.6c0-41.6-3.2-83.2-22.4-118.4l-243.2-515.2c-12.8-28.8-44.8-48-76.8-48s-64 19.2-76.8 48l-240 515.2c-19.2 35.2-22.4 80-22.4 118.4 0 188.8 153.6 342.4 342.4 342.4s339.2-153.6 339.2-342.4z" />
<glyph unicode="&#xe93c;" glyph-name="money" horiz-adv-x="1526" d="M611.2 182.4h304v76.8h-102.4v358.4h-89.6l-118.4-108.8 60.8-64c19.2 16 32 25.6 44.8 44.8h3.2v-230.4h-102.4v-76.8zM1017.6 387.2c0-144-86.4-329.6-252.8-329.6s-252.8 185.6-252.8 329.6 86.4 329.6 252.8 329.6 252.8-185.6 252.8-329.6zM1424 182.4v409.6c-112 0-204.8 92.8-204.8 204.8h-915.2c0-112-92.8-204.8-204.8-204.8v-406.4c112 0 204.8-92.8 204.8-204.8h915.2c3.2 112 92.8 201.6 204.8 201.6zM1526.4 844.8v-915.2c0-28.8-22.4-51.2-51.2-51.2h-1424c-28.8 0-51.2 22.4-51.2 51.2v915.2c0 28.8 22.4 51.2 51.2 51.2h1424c28.8 0 51.2-22.4 51.2-51.2z" />
<glyph unicode="&#xe93d;" glyph-name="paperclip" horiz-adv-x="938" d="M937.6 57.6c0-105.6-80-185.6-185.6-185.6-57.6 0-115.2 25.6-156.8 67.2l-518.4 518.4c-48 51.2-76.8 115.2-76.8 182.4 0 140.8 112 256 252.8 256 67.2 0 134.4-28.8 182.4-76.8l406.4-406.4c3.2-3.2 6.4-9.6 6.4-16 0-12.8-38.4-51.2-51.2-51.2-6.4 0-12.8 3.2-16 6.4l-406.4 409.6c-32 32-76.8 51.2-121.6 51.2-92.8 0-166.4-76.8-166.4-172.8 0-44.8 19.2-89.6 51.2-121.6l518.4-518.4c25.6-25.6 60.8-41.6 96-41.6 57.6 0 99.2 41.6 99.2 99.2 0 38.4-16 70.4-41.6 96l-387.2 390.4c-9.6 9.6-25.6 16-41.6 16-25.6 0-44.8-19.2-44.8-44.8 0-16 6.4-28.8 16-38.4l275.2-275.2c3.2-3.2 6.4-9.6 6.4-16 0-12.8-38.4-51.2-51.2-51.2-6.4 0-9.6 3.2-16 6.4l-275.2 275.2c-25.6 25.6-41.6 64-41.6 99.2 0 73.6 57.6 131.2 131.2 131.2 38.4 0 73.6-16 99.2-41.6l390.4-390.4c41.6-41.6 67.2-99.2 67.2-156.8v0z" />
<glyph unicode="&#xe93e;" glyph-name="phone" d="M1024 86.4c0-25.6-12.8-76.8-22.4-102.4-16-35.2-54.4-57.6-89.6-76.8-41.6-22.4-86.4-38.4-134.4-38.4-67.2 0-128 28.8-192 51.2-44.8 16-86.4 35.2-128 60.8-124.8 76.8-272 224-348.8 348.8-25.6 38.4-44.8 83.2-60.8 128-19.2 64-48 124.8-48 192 0 48 12.8 92.8 38.4 134.4 19.2 32 41.6 73.6 76.8 89.6 22.4 9.6 73.6 22.4 99.2 22.4 6.4 0 9.6 0 16-3.2 16-6.4 32-41.6 38.4-54.4 22.4-41.6 44.8-83.2 70.4-124.8 12.8-19.2 32-41.6 32-64 0-44.8-131.2-108.8-131.2-147.2 0-19.2 19.2-44.8 28.8-64 73.6-131.2 166.4-224 297.6-297.6 16-9.6 41.6-28.8 64-28.8 38.4 0 105.6 131.2 147.2 131.2 22.4 0 44.8-22.4 64-32 41.6-22.4 83.2-48 124.8-70.4 16-6.4 51.2-22.4 54.4-38.4 3.2-6.4 3.2-9.6 3.2-16z" />
<glyph unicode="&#xe93f;" glyph-name="profile" horiz-adv-x="1152" d="M530.048 892.544c-96.224-12.16-161.92-61.728-187.36-141.568-10.624-32.96-9.952-67.68 3.104-142.656l4.192-24.352-6.208-6.624c-13.728-14.816-18.144-36.288-13.504-64.352 5.76-33.408 13.92-47.36 33.632-57.536 5.952-2.88 12.384-7.744 14.144-10.624 1.984-2.88 6.4-16.8 9.952-30.976 7.968-32.512 18.144-53.312 36.704-75.424 21.664-25.888 24.096-32.288 23.904-61.92-0.896-65.696-27.232-107.072-92.256-144.448-24.992-14.144-54.208-26.976-110.368-48.224-104.832-39.392-175.648-74.528-212.576-105.28l-10.4-8.832v-99.072h1105.984v94.688l-10.4 9.536c-35.616 31.392-108.608 68.128-217.024 109.056-56.192 21.216-85.376 34.048-110.368 48.224-65.024 37.376-91.36 78.752-92.256 144.448-0.192 29.664 2.24 36.064 23.904 61.92 18.592 22.112 28.768 42.912 36.704 75.424 3.52 14.144 7.968 28.128 9.952 30.976 1.76 2.88 8.192 7.744 14.144 10.624 19.68 10.176 27.872 24.096 33.632 57.536 4.672 28.128-0.896 53.088-14.4 65.92-5.536 5.088-5.536 5.312-2.656 20.576 14.144 73.44 15.488 117.888 4.672 151.52-23.456 72.8-78.56 119.68-161.92 137.152-24.992 5.312-86.944 7.744-113.024 4.416z" />
<glyph unicode="&#xe940;" glyph-name="question-circle" d="M598.4 64v128c0 12.8-9.6 22.4-22.4 22.4h-128c-12.8 0-22.4-9.6-22.4-22.4v-128c0-12.8 9.6-22.4 22.4-22.4h128c12.8 0 22.4 9.6 22.4 22.4zM768 512c0 121.6-128 214.4-243.2 214.4-108.8 0-188.8-48-246.4-140.8-6.4-9.6-3.2-22.4 6.4-28.8l86.4-67.2c3.2-3.2 6.4-3.2 12.8-3.2s12.8 3.2 16 6.4c32 38.4 44.8 51.2 57.6 60.8 12.8 6.4 32 16 57.6 16 41.6 0 83.2-28.8 83.2-57.6 0-35.2-19.2-51.2-57.6-70.4-48-22.4-112-76.8-112-140.8v-25.6c0-12.8 9.6-22.4 22.4-22.4h128c12.8 0 22.4 9.6 22.4 22.4v0c0 16 19.2 48 51.2 67.2 44.8 28.8 115.2 67.2 115.2 169.6v0zM1024 384c0-281.6-230.4-512-512-512s-512 230.4-512 512 230.4 512 512 512 512-230.4 512-512z" />
<glyph unicode="&#xe941;" glyph-name="question-circle-o" d="M585.6 182.4v-105.6c0-12.8-9.6-22.4-22.4-22.4h-105.6c-12.8 0-22.4 9.6-22.4 22.4v105.6c0 12.8 9.6 22.4 22.4 22.4h105.6c12.8-3.2 22.4-12.8 22.4-22.4zM758.4 512c0-96-67.2-131.2-115.2-160-35.2-19.2-57.6-32-57.6-54.4v-22.4c0-12.8-9.6-22.4-22.4-22.4h-105.6c-12.8 0-22.4 9.6-22.4 22.4v44.8c0 83.2 57.6 108.8 105.6 128 38.4 19.2 64 32 64 60.8 0 38.4-48 67.2-92.8 67.2-22.4 0-48-6.4-64-19.2-16-9.6-28.8-25.6-54.4-54.4-3.2-6.4-9.6-6.4-16-6.4-3.2 0-9.6 0-12.8 3.2l-73.6 54.4c-3.2 9.6-3.2 22.4 0 32 54.4 86.4 131.2 128 233.6 128v0c108.8 0 233.6-86.4 233.6-201.6v0zM512 809.6c-236.8 0-425.6-188.8-425.6-425.6s192-425.6 425.6-425.6 425.6 192 425.6 425.6-188.8 425.6-425.6 425.6zM1024 384c0-281.6-230.4-512-512-512s-512 230.4-512 512 230.4 512 512 512v0c281.6 0 512-230.4 512-512z" />
<glyph unicode="&#xe942;" glyph-name="quote-left" horiz-adv-x="1210" d="M560 291.2v-278.4c0-76.8-64-140.8-140.8-140.8h-278.4c-76.8 0-140.8 64-140.8 140.8v512c0 204.8 166.4 371.2 371.2 371.2h48c25.6 0 48-22.4 48-48v-92.8c0-25.6-22.4-48-48-48h-48c-102.4 0-185.6-83.2-185.6-185.6v-22.4c0-38.4 32-70.4 70.4-70.4h163.2c76.8 3.2 140.8-60.8 140.8-137.6zM1209.6 291.2v-278.4c0-76.8-64-140.8-140.8-140.8h-278.4c-76.8 0-140.8 64-140.8 140.8v512c3.2 204.8 169.6 371.2 374.4 371.2h48c25.6 0 48-22.4 48-48v-92.8c0-25.6-22.4-48-48-48h-48c-102.4 0-185.6-83.2-185.6-185.6v-22.4c0-38.4 32-70.4 70.4-70.4h163.2c76.8 3.2 137.6-60.8 137.6-137.6z" />
<glyph unicode="&#xe943;" glyph-name="quote-right" horiz-adv-x="1210" d="M560 755.2v-512c0-204.8-166.4-371.2-371.2-371.2h-48c-25.6 0-48 22.4-48 48v92.8c0 25.6 22.4 48 48 48h48c102.4 0 185.6 83.2 185.6 185.6v22.4c0 38.4-32 70.4-70.4 70.4h-163.2c-76.8 0-140.8 64-140.8 140.8v275.2c0 76.8 64 140.8 140.8 140.8h278.4c76.8 0 140.8-64 140.8-140.8zM1209.6 755.2v-512c0-204.8-166.4-371.2-371.2-371.2h-48c-25.6 0-48 22.4-48 48v92.8c0 25.6 22.4 48 48 48h48c102.4 0 185.6 83.2 185.6 185.6v22.4c0 38.4-32 70.4-70.4 70.4h-163.2c-76.8 0-140.8 64-140.8 140.8v275.2c0 76.8 64 140.8 140.8 140.8h278.4c80 0 140.8-64 140.8-140.8z" />
<glyph unicode="&#xe944;" glyph-name="ravelry" horiz-adv-x="1248" d="M652.8-96c-3.2 0-3.2 0-6.4 3.2 0 0-188.8 108.8-252.8 288-22.4 3.2-67.2 12.8-99.2 22.4v0c51.2-163.2 188.8-284.8 358.4-313.6v0zM288 252.8l96-16c-32 99.2-35.2 208-35.2 208-38.4-38.4-57.6-86.4-70.4-128v0c0-22.4 3.2-44.8 9.6-64zM348.8 598.4v0c-19.2-25.6-32-54.4-44.8-83.2 19.2 19.2 35.2 32 41.6 38.4 0 16 3.2 44.8 3.2 44.8zM1171.2 352c0 249.6-201.6 451.2-448 451.2-115.2 0-217.6-44.8-297.6-115.2-12.8-22.4-19.2-54.4-25.6-92.8 121.6 102.4 339.2 76.8 339.2 76.8 54.4-3.2 48-51.2 48-64-198.4 16-294.4-38.4-390.4-121.6 0 0 19.2-182.4 60.8-256 249.6-12.8 441.6 124.8 441.6 124.8 25.6 16 44.8 19.2 51.2-9.6 3.2-25.6 6.4-57.6-22.4-70.4-83.2-38.4-176-64-265.6-76.8-60.8-9.6-92.8-9.6-182.4-9.6 83.2-195.2 294.4-249.6 294.4-249.6 67.2-9.6 115.2-3.2 150.4 9.6v0c144 73.6 246.4 227.2 246.4 403.2v0zM1212.8 371.2c-3.2-38.4-9.6-83.2-22.4-121.6-51.2-153.6-121.6-252.8-284.8-342.4-16-9.6-32-19.2-48-25.6-28.8-9.6-60.8-12.8-92.8-9.6-12.8 0-28.8 0-41.6 0-217.6 0-403.2 150.4-457.6 352-3.2 0-3.2 0-6.4 0-12.8-102.4 64-243.2 64-243.2s3.2-6.4 32-48c-147.2 76.8-150.4 304-150.4 304-35.2 12.8-156.8 54.4-176 89.6 0 0 96-51.2 176-60.8 0 0 0 19.2 0 19.2 6.4 70.4 28.8 124.8 54.4 166.4 16 76.8 51.2 150.4 99.2 208 9.6 35.2 22.4 76.8 44.8 121.6 9.6 19.2 19.2 32 44.8 44.8 179.2 80 348.8 102.4 524.8 9.6v0c169.6-86.4 259.2-272 240-464v0z" />
<glyph unicode="&#xe945;" glyph-name="search" d="M710.4 464c0 153.6-124.8 275.2-275.2 275.2s-275.2-124.8-275.2-275.2 124.8-275.2 275.2-275.2 275.2 121.6 275.2 275.2zM1024-48c0-41.6-35.2-80-80-80-22.4 0-41.6 9.6-54.4 22.4l-211.2 211.2c-70.4-51.2-156.8-76.8-246.4-76.8-236.8 0-432 195.2-432 435.2s195.2 432 432 432 432-195.2 432-432c0-86.4-25.6-172.8-76.8-246.4l211.2-211.2c16-16 25.6-35.2 25.6-54.4z" />
<glyph unicode="&#xe946;" glyph-name="shield" horiz-adv-x="854" d="M726.4 342.4v425.6h-297.6v-758.4c35.2 19.2 89.6 48 140.8 92.8 70.4 54.4 156.8 140.8 156.8 240zM854.4 854.4v-512c0-281.6-393.6-457.6-409.6-464-6.4-6.4-12.8-6.4-19.2-6.4s-12.8 0-16 3.2c-16 9.6-409.6 185.6-409.6 467.2v512c0 22.4 19.2 41.6 41.6 41.6h768c25.6 0 44.8-19.2 44.8-41.6v0z" />
<glyph unicode="&#xe947;" glyph-name="signal" horiz-adv-x="1194" d="M169.6 22.4v-128c0-12.8-9.6-22.4-19.2-22.4h-128c-12.8 0-22.4 9.6-22.4 22.4v128c0 12.8 9.6 22.4 22.4 22.4h128c9.6-3.2 19.2-12.8 19.2-22.4zM425.6 105.6v-214.4c0-12.8-9.6-22.4-22.4-22.4h-128c-9.6 3.2-19.2 12.8-19.2 25.6v214.4c0 9.6 9.6 19.2 22.4 19.2h128c9.6 0 19.2-9.6 19.2-22.4zM681.6 278.4v-384c0-12.8-9.6-22.4-22.4-22.4h-128c-12.8 0-22.4 9.6-22.4 22.4v384c0 12.8 9.6 22.4 22.4 22.4h128c12.8-3.2 22.4-12.8 22.4-22.4zM937.6 534.4v-640c0-12.8-9.6-22.4-22.4-22.4h-128c-12.8 0-22.4 9.6-22.4 22.4v640c0 12.8 9.6 22.4 22.4 22.4h128c12.8-3.2 22.4-12.8 22.4-22.4zM1193.6 873.6v-982.4c0-12.8-9.6-22.4-22.4-22.4h-128c-12.8 0-22.4 9.6-22.4 22.4v982.4c3.2 12.8 12.8 22.4 25.6 22.4h128c9.6 0 19.2-9.6 19.2-22.4z" />
<glyph unicode="&#xe948;" glyph-name="table" horiz-adv-x="1210" d="M371.2-12.8v140.8c0 12.8-9.6 22.4-22.4 22.4h-233.6c-12.8 0-22.4-9.6-22.4-22.4v-140.8c0-12.8 9.6-22.4 22.4-22.4h233.6c12.8 0 22.4 9.6 22.4 22.4zM371.2 268.8v140.8c0 12.8-9.6 22.4-22.4 22.4h-233.6c-12.8 0-22.4-9.6-22.4-22.4v-140.8c0-12.8 9.6-22.4 22.4-22.4h233.6c12.8-3.2 22.4 9.6 22.4 22.4zM745.6-12.8v140.8c0 12.8-9.6 22.4-22.4 22.4h-233.6c-12.8 0-22.4-9.6-22.4-22.4v-140.8c0-12.8 9.6-22.4 22.4-22.4h233.6c12.8 0 22.4 9.6 22.4 22.4zM371.2 547.2v140.8c0 12.8-9.6 22.4-22.4 22.4h-233.6c-12.8 0-22.4-9.6-22.4-22.4v-140.8c0-12.8 9.6-22.4 22.4-22.4h233.6c12.8 0 22.4 9.6 22.4 22.4zM745.6 268.8v140.8c0 12.8-9.6 22.4-22.4 22.4h-233.6c-12.8 0-22.4-9.6-22.4-22.4v-140.8c0-12.8 9.6-22.4 22.4-22.4h233.6c12.8-3.2 22.4 9.6 22.4 22.4zM1116.8-12.8v140.8c0 12.8-9.6 22.4-22.4 22.4h-233.6c-12.8 0-22.4-9.6-22.4-22.4v-140.8c0-12.8 9.6-22.4 22.4-22.4h233.6c12.8 0 22.4 9.6 22.4 22.4zM745.6 547.2v140.8c0 12.8-9.6 22.4-22.4 22.4h-233.6c-12.8 0-22.4-9.6-22.4-22.4v-140.8c0-12.8 9.6-22.4 22.4-22.4h233.6c12.8 0 22.4 9.6 22.4 22.4zM1116.8 268.8v140.8c0 12.8-9.6 22.4-22.4 22.4h-233.6c-12.8 0-22.4-9.6-22.4-22.4v-140.8c0-12.8 9.6-22.4 22.4-22.4h233.6c12.8-3.2 22.4 9.6 22.4 22.4zM1116.8 547.2v140.8c0 12.8-9.6 22.4-22.4 22.4h-233.6c-12.8 0-22.4-9.6-22.4-22.4v-140.8c0-12.8 9.6-22.4 22.4-22.4h233.6c12.8 0 22.4 9.6 22.4 22.4zM1209.6 780.8v-790.4c0-64-51.2-115.2-115.2-115.2h-979.2c-64 0-115.2 51.2-115.2 115.2v790.4c0 64 51.2 115.2 115.2 115.2h976c67.2 0 118.4-51.2 118.4-115.2z" />
<glyph unicode="&#xe949;" glyph-name="tag" d="M304 678.4c0 48-38.4 86.4-86.4 86.4s-86.4-38.4-86.4-86.4 38.4-86.4 86.4-86.4 86.4 38.4 86.4 86.4zM1024 291.2c0-22.4-9.6-44.8-25.6-60.8l-332.8-332.8c-16-16-38.4-25.6-60.8-25.6s-44.8 9.6-60.8 25.6l-483.2 483.2c-35.2 35.2-60.8 99.2-60.8 147.2v281.6c0 48 38.4 86.4 86.4 86.4h281.6c48 0 112-25.6 147.2-60.8l483.2-483.2c16-16 25.6-38.4 25.6-60.8v0z" />
<glyph unicode="&#xe94a;" glyph-name="tags" horiz-adv-x="1283" d="M304 678.4c0 48-38.4 86.4-86.4 86.4s-86.4-38.4-86.4-86.4 38.4-86.4 86.4-86.4 86.4 38.4 86.4 86.4zM1024 291.2c0-22.4-9.6-44.8-25.6-60.8l-332.8-332.8c-16-16-38.4-25.6-60.8-25.6s-44.8 9.6-60.8 25.6l-483.2 483.2c-35.2 35.2-60.8 99.2-60.8 147.2v281.6c0 48 38.4 86.4 86.4 86.4h281.6c48 0 112-25.6 147.2-60.8l483.2-483.2c16-16 25.6-38.4 25.6-60.8v0zM1283.2 291.2c0-22.4-9.6-44.8-25.6-60.8l-329.6-332.8c-16-16-38.4-25.6-64-25.6-35.2 0-51.2 16-76.8 38.4l316.8 316.8c16 16 25.6 38.4 25.6 60.8s-9.6 44.8-25.6 60.8l-480 486.4c-35.2 35.2-99.2 60.8-147.2 60.8h150.4c48 0 112-25.6 147.2-60.8l483.2-483.2c16-16 25.6-38.4 25.6-60.8z" />
<glyph unicode="&#xe94b;" glyph-name="th-large" horiz-adv-x="1210" d="M556.8 243.2v-278.4c0-51.2-41.6-92.8-92.8-92.8h-371.2c-51.2 0-92.8 41.6-92.8 92.8v278.4c0 51.2 41.6 92.8 92.8 92.8h371.2c51.2 0 92.8-41.6 92.8-92.8zM556.8 803.2v-278.4c0-51.2-41.6-92.8-92.8-92.8h-371.2c-51.2 0-92.8 41.6-92.8 92.8v278.4c0 51.2 41.6 92.8 92.8 92.8h371.2c51.2 0 92.8-41.6 92.8-92.8zM1209.6 243.2v-278.4c0-51.2-41.6-92.8-92.8-92.8h-371.2c-51.2 0-92.8 41.6-92.8 92.8v278.4c0 51.2 41.6 92.8 92.8 92.8h371.2c51.2 0 92.8-41.6 92.8-92.8zM1209.6 803.2v-278.4c0-51.2-41.6-92.8-92.8-92.8h-371.2c-51.2 0-92.8 41.6-92.8 92.8v278.4c0 51.2 41.6 92.8 92.8 92.8h371.2c51.2 0 92.8-41.6 92.8-92.8z" />
<glyph unicode="&#xe94c;" glyph-name="unlock" horiz-adv-x="1210" d="M1209.6 569.6v-185.6c0-25.6-22.4-48-48-48h-48c-25.6 0-48 22.4-48 48v185.6c0 102.4-83.2 185.6-185.6 185.6s-185.6-83.2-185.6-185.6v-140.8h73.6c38.4 0 70.4-32 70.4-70.4v-419.2c0-38.4-32-70.4-70.4-70.4h-697.6c-38.4 3.2-70.4 35.2-70.4 73.6v419.2c0 38.4 32 70.4 70.4 70.4h489.6v140.8c0 176 144 323.2 323.2 323.2s326.4-147.2 326.4-326.4z" />
<glyph unicode="&#xe94d;" glyph-name="unlock-alt" horiz-adv-x="768" d="M704 384c35.2 0 64-28.8 64-64v-384c0-35.2-28.8-64-64-64h-640c-35.2 0-64 28.8-64 64v384c0 35.2 28.8 64 64 64h22.4v214.4c0 163.2 134.4 297.6 297.6 297.6s297.6-134.4 297.6-297.6c0-22.4-19.2-41.6-41.6-41.6h-41.6c-22.4 0-41.6 19.2-41.6 41.6-3.2 92.8-80 169.6-172.8 169.6s-169.6-76.8-169.6-169.6v-214.4h489.6z" />
<glyph unicode="&#xe94e;" glyph-name="user" horiz-adv-x="854" d="M854.4 48c0-96-64-176-140.8-176h-572.8c-76.8 0-140.8 80-140.8 176 0 176 44.8 377.6 217.6 377.6 54.4-51.2 128-86.4 208-86.4s153.6 32 208 86.4c176 0 220.8-201.6 220.8-377.6v0zM681.6 640c0-140.8-115.2-256-256-256s-256 115.2-256 256 115.2 256 256 256 256-115.2 256-256z" />
<glyph unicode="&#xe94f;" glyph-name="user-o" horiz-adv-x="864" d="M686.272 448c80.576-23.424 191.424-102.848 191.424-362.848 0-117.728-87.424-213.152-194.848-213.152h-488c-107.424 0-194.848 95.424-194.848 213.152 0 260 110.848 339.424 191.424 362.848-28.576 45.152-45.152 98.272-45.152 155.424 0 161.152 131.424 292.576 292.576 292.576s292.576-131.424 292.576-292.576c0-57.152-16.576-110.272-45.152-155.424zM438.848 822.848c-121.152 0-219.424-98.272-219.424-219.424s98.272-219.424 219.424-219.424 219.424 98.272 219.424 219.424-98.272 219.424-219.424 219.424zM682.848-54.848c66.848 0 121.728 62.272 121.728 140 0 180-60.576 292.576-173.728 298.272-51.424-45.152-118.272-72.576-192-72.576s-140.576 27.424-192 72.576c-113.152-5.728-173.728-118.272-173.728-298.272 0-77.728 54.848-140 121.728-140h488z" />
<glyph unicode="&#xe950;" glyph-name="users" horiz-adv-x="1091" d="M409.6 892.8c-25.6-3.2-57.6-12.8-80-28.8-12.8-9.6-38.4-32-44.8-41.6-16-22.4-25.6-44.8-28.8-70.4-3.2-16 0-35.2 6.4-83.2l6.4-28.8-6.4-6.4c-3.2-3.2-6.4-6.4-9.6-12.8-6.4-16-3.2-51.2 6.4-67.2 3.2-9.6 9.6-12.8 19.2-19.2s16-12.8 19.2-22.4c6.4-32 16-54.4 35.2-73.6 19.2-22.4 19.2-22.4 19.2-48 0-16 0-25.6-3.2-35.2-12.8-48-51.2-80-144-115.2-105.6-38.4-156.8-64-188.8-89.6l-16-12.8v-83.2h364.8l32 12.8c57.6 22.4 99.2 44.8 112 60.8 16 19.2 22.4 41.6 22.4 76.8 0 28.8 0 28.8-19.2 48-16 22.4-28.8 41.6-35.2 73.6-3.2 12.8-6.4 19.2-16 22.4s-16 9.6-19.2 19.2-12.8 54.4-6.4 67.2c3.2 3.2 6.4 9.6 9.6 12.8l6.4 6.4-3.2 32c-6.4 48-9.6 67.2-6.4 83.2 3.2 25.6 12.8 48 28.8 70.4 9.6 12.8 48 51.2 60.8 57.6 32 19.2 70.4 28.8 108.8 28.8h16v9.6c0 28.8-9.6 60.8-28.8 86.4-9.6 12.8-32 35.2-44.8 41.6-22.4 12.8-51.2 22.4-80 28.8-22.4 3.2-80 3.2-92.8 0v0zM636.8 694.4c-25.6-3.2-57.6-12.8-80-28.8-12.8-9.6-38.4-32-44.8-41.6-16-22.4-25.6-44.8-28.8-70.4-3.2-16 0-35.2 6.4-83.2l3.2-28.8-6.4-6.4c-3.2-3.2-6.4-9.6-9.6-12.8-6.4-16-3.2-51.2 6.4-67.2 3.2-9.6 9.6-12.8 19.2-19.2s16-9.6 16-22.4c6.4-32 16-54.4 35.2-73.6 19.2-22.4 19.2-22.4 19.2-48 0-16 0-25.6-3.2-35.2-12.8-48-51.2-80-144-115.2-105.6-38.4-156.8-64-188.8-89.6l-6.4-16v-64h860.8v96l-16 9.6c-28.8 16-67.2 32-144 60.8-108.8 41.6-147.2 83.2-144 156.8 0 19.2 3.2 22.4 19.2 41.6 19.2 22.4 28.8 41.6 35.2 73.6 3.2 12.8 6.4 19.2 16 22.4s16 9.6 19.2 19.2 12.8 54.4 6.4 67.2c-3.2 3.2-6.4 9.6-9.6 12.8l-6.4 6.4 3.2 28.8c6.4 44.8 9.6 67.2 6.4 86.4-3.2 25.6-12.8 48-28.8 70.4-9.6 12.8-32 35.2-44.8 41.6-22.4 12.8-51.2 22.4-80 28.8-12.8 3.2-70.4 0-86.4 0v0z" />
<glyph unicode="&#xe951;" glyph-name="video-camera" horiz-adv-x="1434" d="M1433.6 819.2v-870.4c0-19.2-12.8-38.4-32-48-6.4-3.2-12.8-3.2-19.2-3.2-12.8 0-25.6 3.2-35.2 16l-323.2 320v-131.2c0-128-102.4-230.4-230.4-230.4h-563.2c-128 0-230.4 102.4-230.4 230.4v563.2c0 128 102.4 230.4 230.4 230.4h563.2c128 0 230.4-102.4 230.4-230.4v-131.2l323.2 320c9.6 9.6 22.4 16 35.2 16 6.4 0 12.8-3.2 19.2-3.2 19.2-9.6 32-25.6 32-48v0z" />
<glyph unicode="&#xe952;" glyph-name="wpforms" d="M342.4 374.4v-86.4h-166.4v86.4c0 0 166.4 0 166.4 0zM342.4 544v-83.2h-166.4v83.2h166.4zM848 204.8v-86.4h-227.2v86.4h227.2zM848 374.4v-86.4h-448v86.4c0 0 448 0 448 0zM848 544v-83.2h-448v83.2h448zM937.6-28.8v825.6c0 6.4-6.4 12.8-12.8 12.8h-22.4l-249.6-169.6-140.8 115.2-140.8-115.2-249.6 169.6h-22.4c-6.4 0-12.8-6.4-12.8-12.8v-825.6c0-6.4 6.4-12.8 12.8-12.8h825.6c6.4 0 12.8 6.4 12.8 12.8v0zM368 710.4l124.8 99.2h-272l147.2-99.2zM656 710.4l147.2 99.2h-272l124.8-99.2zM1024 796.8v-825.6c0-54.4-44.8-99.2-99.2-99.2h-825.6c-54.4 0-99.2 44.8-99.2 99.2v825.6c0 54.4 44.8 99.2 99.2 99.2h825.6c54.4 0 99.2-44.8 99.2-99.2z" />
<glyph unicode="&#xe953;" glyph-name="wrench" d="M227.2 57.6c0 22.4-19.2 38.4-38.4 38.4s-38.4-19.2-38.4-38.4 19.2-38.4 38.4-38.4 38.4 16 38.4 38.4zM627.2 320l-425.6-425.6c-12.8-12.8-35.2-22.4-54.4-22.4s-41.6 9.6-57.6 22.4l-67.2 67.2c-12.8 16-22.4 35.2-22.4 57.6s9.6 41.6 22.4 57.6l425.6 422.4c32-80 99.2-147.2 179.2-179.2zM1024 592c0-19.2-6.4-44.8-12.8-67.2-38.4-112-147.2-188.8-262.4-188.8-153.6 0-278.4 124.8-278.4 278.4s121.6 281.6 275.2 281.6c44.8 0 105.6-12.8 144-38.4 3.2-6.4 6.4-9.6 6.4-19.2 0-6.4-3.2-12.8-9.6-16l-182.4-105.6v-140.8l121.6-67.2c19.2 12.8 166.4 102.4 179.2 102.4s19.2-6.4 19.2-19.2v0z" />
<glyph unicode="&#xe954;" glyph-name="download-excel" horiz-adv-x="960" d="M835.424 70.944h-54.944l8.736 177.152c0 17.664-14.272 31.968-31.936 31.968h-90.464c-17.632 0-31.904-14.304-31.904-31.968l8.736-177.152h-55.008c-7.552 0-14.464-4.224-17.92-11.008-3.392-6.72-2.752-14.784 1.728-20.864l108.736-149.088c7.2-9.856 18.656-15.68 30.848-15.68s23.648 5.856 30.88 15.68l108.736 149.088c4.448 6.080 5.088 14.144 1.696 20.864-3.392 6.784-10.304 11.008-17.92 11.008zM205.024-10.048c-1.024 0.256-5.024 3.968-5.024 11.392v454.112h-43.84v-454.112c0-30.496 21.856-55.232 48.832-55.232h380.992l-31.968 43.84h-348.992zM864 647.424l-155.968 176.224c-39.424 44.576-96.064 70.080-155.584 70.080h-347.456c-26.976 0-48.832-24.704-48.832-55.2v-117.792h-74.528v-219.232h453.056v219.2h-334.688v117.824c0 7.424 4 11.104 4.992 11.36h359.168c34.624 0 63.008-27.488 64.128-62.112l4.608-141.024 182.496-31.744c9.472-1.376 20.864-13.888 20.864-23.488v-476.8c16.736-0.192 32.32-6.816 43.84-18.112v508.256c0 15.68-5.728 30.816-16.096 42.56zM436.096 583.776c-1.216 1.664-4 4.288-10.496 7.488-4.992 2.432-10.24 5.152-15.584 8.096-5.408 2.976-10.752 6.656-15.872 10.944-5.088 4.48-8.8 9.44-11.2 14.88-2.336 5.376-3.552 12.288-3.552 20.544 0 14.144 4.128 25.504 12.352 33.792s19.488 12.512 33.504 12.512c14.88 0 26.112-3.936 33.312-11.648 7.104-7.648 10.848-18.368 11.136-31.872l0.096-4.48h-33.152l0.256 4.608c0.192 3.872-0.736 6.688-2.88 8.672-2.336 2.112-5.408 3.168-9.376 3.168-4.608 0-7.936-0.896-9.888-2.656-1.888-1.696-2.784-4.224-2.784-7.744 0-2.976 0.608-5.44 1.792-7.328 0.864-1.344 2.88-3.584 7.584-6.368 2.912-1.856 5.888-3.424 8.96-4.768 3.36-1.472 6.656-3.008 9.856-4.608 3.264-1.632 6.528-3.456 9.728-5.44 3.328-2.080 6.496-4.576 9.312-7.392 4.8-4.672 8.288-9.856 10.272-15.392 1.952-5.376 2.944-11.712 2.944-18.72 0-14.88-4.032-26.976-12-35.968-8.096-9.184-19.712-13.824-34.528-13.824-14.976 0-26.464 3.84-34.176 11.392-7.68 7.52-12.16 18.784-13.344 33.472l-0.384 4.736h33.056l0.512-3.84c0.512-4.192 1.888-7.2 4.064-8.992 2.24-1.856 6.272-2.816 11.712-2.816 3.456 0 6.144 0.992 8.192 3.040 2.016 2.048 3.008 4.8 3.008 8.416 0.032 3.168-0.768 5.824-2.432 8.096zM267.872 689.984h35.072v-123.872h51.776v-33.856h-86.848v157.728zM208.672 689.984h39.072l-32-78.944 32-78.752h-41.44l-11.136 36.96-11.328-36.96h-39.904l31.744 78.912-31.744 78.784h40.896l11.968-36.192 11.872 36.192z" />
<glyph unicode="&#xe955;" glyph-name="download-general" horiz-adv-x="960" d="M829.76 67.328h-55.392l8.832 178.4c0 17.792-14.4 32.192-32.192 32.192h-91.136c-17.76 0-32.192-14.4-32.192-32.192l8.864-178.4h-55.392c-7.616 0-14.56-4.32-18.016-11.104-3.424-6.784-2.784-14.944 1.696-21.056l109.568-150.144c7.264-9.92 18.784-15.776 31.072-15.776s23.84 5.888 31.072 15.776l109.568 150.144c4.512 6.112 5.152 14.272 1.728 21.056-3.52 6.784-10.496 11.104-18.080 11.104zM194.752-14.24c-1.024 0.224-5.088 3.936-5.088 11.392v457.44h-44.16v-457.44c0-30.688 22.016-55.584 49.184-55.584h383.776l-32.256 44.192h-351.456zM144.224 840.32c0 30.72 22.080 55.68 48.96 55.68h350.080c59.84 0 117.12-25.6 156.8-70.72l157.088-177.28c10.24-11.84 16-27.2 16-42.88v-512c-11.488 11.488-27.2 17.92-43.808 18.24v480.32c0 9.6-11.52 22.080-21.12 23.68l-184 32-4.512 142.080c-1.28 34.56-29.76 62.4-64.64 62.4h-361.856c-0.96-0.32-4.8-3.84-4.8-11.52 0 0-39.36-68.48-43.84-11.2-0.352 3.2-0.352 7.040-0.352 11.2zM145.504 841.984h42.976v-458.016h-42.976v458.016z" />
<glyph unicode="&#xe956;" glyph-name="download-jpg" horiz-adv-x="960" d="M554.688 59.616c-3.424-6.784-2.816-14.88 1.696-20.96l109.088-149.536c7.232-9.92 18.688-15.744 30.912-15.744 12.256 0 23.776 5.856 31.008 15.744l109.088 149.536c4.48 6.080 5.12 14.176 1.728 20.96-3.488 6.752-10.4 11.008-18.016 11.008h-55.168l8.8 177.76c0 17.664-14.368 32.032-32.096 32.032h-90.752c-17.664 0-32.032-14.368-32.032-32.032l8.8-177.76h-55.2c-7.52 0-14.464-4.256-17.856-11.008zM138.72 456.384v-455.552c0-30.592 21.952-55.392 48.992-55.392h382.208l-32.096 44.032-350.048-0.064c-1.056 0.288-5.056 3.936-5.056 11.392v455.584h-44zM302.88 638.784c0 7.296-1.312 12.608-3.872 15.776-2.368 2.912-6.336 4.352-12.16 4.352h-7.936v-40.672h7.968c7.456 0 16 2.336 16 20.544zM848.8 648.928l-156.416 176.736c-39.584 44.736-96.384 70.336-156.096 70.336h-348.544c-27.072 0-49.024-24.8-49.024-55.392v-118.144h-74.72v-219.904h454.464v219.904h-335.744v118.144c0 7.456 4 11.168 5.024 11.424h360.288c34.752 0 63.2-27.584 64.352-62.304l4.608-141.44 183.072-31.84c9.536-1.376 20.96-13.952 20.96-23.552v-478.272c16.8-0.224 32.384-6.88 44-18.208v509.856c-0.032 15.712-5.76 30.88-16.224 42.656zM357.92 645.792c0 15.872 4.096 27.968 12.224 35.936 8.096 7.936 19.456 11.968 33.792 11.968 12.704 0 23.296-3.584 31.424-10.656 8.224-7.168 12.864-18.272 13.76-33.024l0.288-4.672h-34.816v4.384c0 3.872-0.928 6.56-2.848 8.16-2.144 1.792-4.704 2.656-7.776 2.656-3.648 0-6.304-1.216-8.448-3.84-2.304-2.784-3.456-6.848-3.456-11.968v-66.112c0-5.344 1.056-9.056 3.104-11.072 2.112-2.080 4.992-3.072 8.768-3.072 3.584 0 6.24 0.96 8.128 2.944 1.888 2.016 2.912 5.856 2.912 11.2v17.856h-12.16v30.208h44.672v-93.28h-28.352v4.256c-0.32-0.224-0.64-0.448-0.896-0.704-5.056-3.744-12.288-5.632-22.144-5.632-5.12 0-10.112 1.056-14.784 3.2-4.672 2.080-8.768 5.12-12.256 8.992-3.456 3.808-6.208 8.448-8.16 13.792-1.984 5.28-2.944 11.2-2.944 17.568v70.912zM243.744 691.616h46.656c7.712 0 14.624-1.312 20.608-3.872 5.984-2.592 11.136-6.336 15.264-11.072 4.064-4.672 7.2-10.336 9.312-16.832 2.016-6.4 3.072-13.6 3.072-21.44 0-17.632-4-31.168-11.904-40.192-8.032-9.248-20.416-13.888-36.768-13.888h-11.072v-50.88h-35.168v158.176zM217.696 691.616v-102.080c0-17.152-4-30.848-11.904-40.768-8.096-10.176-20.416-15.328-36.608-15.328h-36.16v33.92h32.64c2.112 0 4.256 0.32 6.24 0.992 1.824 0.64 3.424 1.632 4.896 3.072 1.44 1.44 2.656 3.52 3.584 6.176 1.024 2.816 1.504 6.432 1.504 10.688v70.816h-13.984v32.512h49.792z" />
<glyph unicode="&#xe957;" glyph-name="download-pdf" horiz-adv-x="960" d="M516.48 85.824c-3.872-7.616-3.168-16.8 1.952-23.68l123.328-169.056c8.16-11.2 21.152-17.76 34.976-17.76 13.856 0 26.848 6.56 34.976 17.76l123.328 169.056c5.056 6.88 5.824 16.064 1.984 23.68-3.936 7.648-11.744 12.48-20.384 12.48h-62.304l9.888 200.864c0 20.032-16.16 36.288-36.192 36.288h-102.592c-20 0-36.192-16.256-36.192-36.288l9.952-200.864h-62.336c-8.672-0.032-16.512-4.832-20.384-12.48zM139.264 457.056v-454.592c0-30.528 21.888-55.296 48.928-55.296h381.344l-32 43.904h-349.344c-1.056 0.256-5.056 3.904-5.056 11.392v454.592h-43.872zM171.040 658.176v-39.584h7.712c7.232 0 15.552 2.272 15.552 20 0 7.136-1.28 12.288-3.744 15.36-2.336 2.848-6.176 4.224-11.84 4.224h-7.68zM305.024 585.952v53.632c0 6.144-1.216 11.2-3.52 15.072-1.984 3.264-4.416 4.736-7.84 4.736h-12.768v-91.264h12.768c3.392 0 11.36 0 11.36 17.824zM847.84 649.216l-156.096 176.384c-39.52 44.64-96.224 70.144-155.776 70.144h-347.808c-27.040 0-48.928-24.736-48.928-55.264v-117.92h-74.56v-219.424h453.472v219.456h-335.008v117.92c0 7.456 4 11.104 5.024 11.328h359.488c34.688 0 63.168-27.488 64.256-62.144l4.576-141.152 182.688-31.776c9.536-1.376 20.928-13.92 20.928-23.488v-477.312c16.736-0.192 32.32-6.816 43.904-18.144v508.832c0 15.648-5.728 30.784-16.16 42.56zM363.456 690.336h82.944v-32h-48.16v-28.512h39.936v-32.352h-39.936v-62.112h-34.784v154.976zM247.968 690.336h45.696c20.224 0 44.32-8.544 44.32-49.152v-56.672c0-31.616-15.328-48.352-44.32-48.352h-45.696v154.176zM202.368 686.56c5.888-2.528 10.944-6.176 14.976-10.816 3.968-4.608 7.040-10.176 9.12-16.576 2.016-6.24 3.040-13.312 3.040-20.992 0-17.312-3.936-30.56-11.68-39.392-7.872-9.024-20.032-13.6-36.064-13.6h-10.72v-49.792h-34.624v154.944h45.76c7.552 0 14.336-1.248 20.192-3.776z" />
<glyph unicode="&#xe958;" glyph-name="download-rar" horiz-adv-x="960" d="M169.216 657.952v-40.832h8c4.672 0 8.032 1.664 10.592 5.216 2.784 3.872 4.192 9.056 4.192 15.392 0 8.064-1.44 13.696-4.16 16.192-2.848 2.688-7.488 4.032-13.76 4.032h-4.864zM829.76 67.328h-55.392l8.832 178.4c0 17.792-14.4 32.192-32.192 32.192h-91.136c-17.76 0-32.192-14.4-32.192-32.192l8.864-178.4h-55.392c-7.616 0-14.56-4.32-18.016-11.104-3.424-6.784-2.784-14.944 1.696-21.056l109.568-150.144c7.264-9.92 18.784-15.776 31.072-15.776s23.84 5.888 31.072 15.776l109.568 150.144c4.512 6.112 5.152 14.272 1.728 21.056-3.52 6.784-10.496 11.104-18.080 11.104zM194.752-14.24c-1.024 0.224-5.088 3.936-5.088 11.392v457.44h-44.16v-457.44c0-30.688 22.016-55.584 49.184-55.584h383.776l-32.256 44.192h-351.456zM417.44 622.336c2.816 3.904 4.256 9.088 4.256 15.392 0 8.064-1.44 13.696-4.192 16.192-2.848 2.656-7.488 4-13.76 4h-4.896v-40.832h8c4.672 0.032 8.064 1.696 10.592 5.248zM293.92 645.184l-7.456-56.832h14.688zM858.432 647.936l-157.024 177.504c-39.744 44.864-96.8 70.56-156.736 70.56h-349.984c-27.168 0-49.184-24.896-49.184-55.584v-118.656h-75.040v-220.8h456.32v220.8h-337.12v118.656c0 7.488 4.032 11.168 5.024 11.424h361.728c34.912 0 63.488-27.68 64.64-62.56l4.64-142.048 183.808-31.968c9.568-1.376 21.056-14.016 21.056-23.648v-480.224c16.832-0.224 32.48-6.912 44.16-18.272v511.968c0 15.776-5.824 31.008-16.288 42.848zM363.136 690.784h46.016c14.944 0 26.912-4.352 35.616-12.992 8.672-8.608 13.088-20.736 13.088-36.128 0-13.376-3.104-23.936-9.216-31.264-4.928-5.92-11.2-10.368-18.72-13.28l33.888-65.152h-43.584l-21.344 44.416v-44.416h-35.712v158.816zM277.696 690.784h33.856l33.728-158.816h-37.568l-5.184 24.192h-17.28l-5.152-24.192h-35.904l33.504 158.816zM215.072 677.792c8.672-8.608 13.088-20.736 13.088-36.128 0-13.408-3.104-23.936-9.184-31.264-4.928-5.92-11.2-10.368-18.72-13.28l33.856-65.152h-43.552l-21.344 44.416v-44.416h-35.744v158.816h45.984c14.944 0 26.912-4.352 35.616-12.992z" />
<glyph unicode="&#xe959;" glyph-name="download-txt" horiz-adv-x="960" d="M557.568 54.72c-3.424-6.784-2.816-14.976 1.696-21.12l109.76-150.432c7.296-9.92 18.816-15.776 31.104-15.776 12.384 0 23.904 5.888 31.168 15.776l109.76 150.432c4.512 6.144 5.152 14.336 1.696 21.12-3.424 6.784-10.432 11.104-18.016 11.104h-55.488l8.832 178.752c0 17.792-14.432 32.256-32.224 32.256h-91.296c-17.824 0-32.256-14.464-32.256-32.256l8.832-178.752h-55.456c-7.68 0-14.688-4.32-18.112-11.104zM139.168 453.824v-458.304c0-30.752 22.080-55.68 49.312-55.68h384.448l-32.288 44.224h-352.128c-1.024 0.288-5.088 4-5.088 11.456v458.304h-44.256zM853.44 647.488l-157.376 177.792c-39.776 44.992-96.928 70.72-156.992 70.72h-350.592c-27.232 0-49.312-24.928-49.312-55.712v-118.848h-75.168v-221.184h457.152v221.184h-337.728v118.848c0 7.488 4.032 11.2 5.056 11.456h362.4c34.944 0 63.584-27.744 64.704-62.656l4.672-142.304 184.128-32c9.6-1.376 21.088-14.016 21.088-23.712v-481.088c16.864-0.224 32.576-6.88 44.224-18.304v512.896c0 15.808-5.792 31.040-16.256 42.912zM356.992 690.4h101.28v-34.144h-32.736v-124.96h-35.776v124.96h-32.736v34.144zM281.472 690.4l12.096-36.512 11.968 36.512h39.392l-32.256-79.68 32.288-79.424h-41.792l-11.232 37.28-11.424-37.28h-40.288l32.032 79.648-32.032 79.456h41.248zM228.16 690.4v-34.144h-32.736v-124.96h-35.808v124.96h-32.704v34.144h101.248z" />
<glyph unicode="&#xe95a;" glyph-name="download-zip" horiz-adv-x="960" d="M554.88 59.264c-3.424-6.72-2.816-14.848 1.696-20.96l109.12-149.6c7.264-9.92 18.752-15.744 31.008-15.744 12.224 0 23.712 5.856 30.944 15.744l109.152 149.6c4.48 6.112 5.152 14.24 1.696 20.96-3.424 6.784-10.4 11.040-17.984 11.040h-55.2l8.768 177.824c0 17.696-14.304 32.064-32.032 32.064h-90.784c-17.728 0-32.064-14.368-32.064-32.064l8.768-177.824h-55.168c-7.552-0.032-14.496-4.288-17.92-11.040zM138.752 456.192v-455.776c0-30.56 21.952-55.392 48.992-55.392h382.368l-32.128 44h-350.176c-1.024 0.256-5.056 3.968-5.056 11.392v455.776h-44zM421.568 638.656c0 7.328-1.312 12.64-3.872 15.776-2.368 2.944-6.368 4.352-12.128 4.352h-7.968v-40.672h7.968c7.424 0 16 2.368 16 20.544zM849.12 648.832l-156.48 176.832c-39.616 44.736-96.416 70.336-156.16 70.336h-348.704c-27.072 0-49.024-24.8-49.024-55.392v-118.24h-74.752v-219.968h454.656v219.968h-335.904v118.24c0 7.456 4.032 11.136 5.024 11.392h360.416c34.784 0 63.296-27.584 64.416-62.336l4.608-141.504 183.136-31.872c9.536-1.376 20.992-13.952 20.992-23.552v-478.464c16.768-0.256 32.384-6.88 44-18.24v510.112c-0.032 15.744-5.792 30.912-16.224 42.688zM362.4 691.52h46.656c7.712 0 14.656-1.312 20.608-3.872 6.016-2.624 11.2-6.304 15.328-11.072 4.064-4.672 7.2-10.368 9.344-16.896 2.016-6.4 3.072-13.6 3.072-21.44 0-17.632-4-31.2-11.936-40.192-8.032-9.216-20.416-13.888-36.8-13.888h-11.072v-50.944h-35.2v158.304zM254.176 565.984h22.464v93.024h-22.464v32.512h78.656v-32.512h-22.048v-93.056h22.048v-32.704h-78.656v32.736zM231.168 691.52l-51.968-124.288h47.68v-33.984h-101.568l54.016 125.568h-48v32.704h99.84z" />
<glyph unicode="&#xe95b;" glyph-name="download-doc" horiz-adv-x="960" d="M555.296 58.56c-3.424-6.752-2.784-14.88 1.696-20.992l109.248-149.76c7.232-9.92 18.752-15.712 30.976-15.712 12.256 0 23.776 5.824 31.008 15.712l109.248 149.76c4.448 6.112 5.12 14.24 1.696 20.992-3.424 6.784-10.4 11.040-17.984 11.040h-55.264l8.8 177.952c0 17.728-14.368 32.128-32.096 32.128h-90.88c-17.728 0-32.064-14.4-32.064-32.128l8.8-177.952h-55.264c-7.52 0-14.496-4.256-17.92-11.040zM138.816 455.84v-456.16c0-30.656 21.984-55.456 49.056-55.456h382.688l-32.128 44.064-350.496-0.032c-1.024 0.288-5.056 3.968-5.056 11.424v456.16h-44.064zM164.576 659.84v-93.536h13.152c3.488 0 11.68 0 11.68 18.304v54.88c0 6.304-1.216 11.52-3.584 15.456-2.080 3.392-4.544 4.896-8.128 4.896h-13.12zM291.616 562.4c3.744 0 6.848 1.28 9.44 3.936s3.904 6.912 3.904 12.704v66.24c0 5.792-1.312 10.048-3.904 12.704-2.592 2.624-5.728 3.904-9.44 3.904-3.936 0-7.072-1.248-9.696-3.872-2.592-2.56-3.872-6.816-3.872-12.736v-66.208c0-6.048 1.28-10.368 3.84-12.864 2.624-2.56 5.76-3.808 9.728-3.808zM849.792 648.64l-156.64 176.96c-39.584 44.768-96.48 70.4-156.288 70.4h-348.96c-27.104 0-49.088-24.832-49.088-55.456v-118.304h-74.816v-220.192h455.072v220.192h-336.224v118.304c0 7.456 4.032 11.168 5.024 11.392h360.736c34.784 0 63.328-27.616 64.448-62.368l4.64-141.664 183.296-31.872c9.504-1.408 20.992-13.984 20.992-23.616v-478.816c16.768-0.192 32.416-6.848 44.032-18.208v510.496c0 15.744-5.792 30.944-16.224 42.752zM360.032 645.28c0 15.872 4 27.968 11.904 36s19.392 12.128 34.176 12.128c26.912 0 42.624-15.072 45.44-43.584l0.48-4.832h-34.72l-0.32 4.064c-0.32 4.064-1.472 6.976-3.456 8.576-2.176 1.76-4.608 2.624-7.424 2.624-3.776 0-6.624-1.12-8.672-3.424-2.144-2.464-3.232-6.624-3.232-12.384v-64.576c0-5.728 1.088-9.92 3.232-12.384 2.048-2.304 4.864-3.456 8.672-3.456 2.88 0 5.312 0.832 7.488 2.56 1.952 1.536 3.104 4.448 3.392 8.64l0.288 4.096h34.72l-0.48-4.832c-2.848-28.512-18.528-43.584-45.44-43.584-14.752 0-26.272 4.064-34.176 12.16-7.904 8.032-11.904 20.128-11.904 36v66.208zM243.872 641.12c0 15.584 4.032 28.288 11.968 37.728 8.128 9.664 20.192 14.56 35.776 14.56 14.976 0 26.752-4.672 35.040-13.952 8.128-9.12 12.256-22.016 12.256-38.336v-58.176c0-16.16-4.128-28.992-12.256-38.112-8.256-9.28-20.032-13.952-35.040-13.952-15.584 0-27.648 4.896-35.776 14.592-7.936 9.408-11.968 22.048-11.968 37.472v58.176zM222.976 641.12v-57.952c0-32.32-15.648-49.376-45.28-49.376h-46.688v157.536h46.688c20.672 0 45.28-8.672 45.28-50.208z" />
<glyph unicode="&#xe95c;" glyph-name="ico-view" d="M258.1 665.1c5.6 4.9 13.9 7.6 24.3 7.6 19.4 0 42.3-7.6 59-13.9 9-2.8 16-5.6 20.8-6.2 1.4 0 2.8-0.7 4.9-0.7 13.9 0 26.4 9 29.8 22.2 4.2 13.2-1.4 27.1-14.6 36.1-24.3 16.6-68.7 29.8-102.7 29.8-15.3 0-27.8-2.8-36.8-7.6-92.3-52.8-163.7-149.9-202.6-211.6 35.4 16 81.2 30.5 136.7 37.5 22.9 38.1 53.4 83.2 81.2 106.8zM659.8 651.9c1.4 0 2.8 0 4.9 0.7 4.9 0.7 11.8 3.5 20.8 6.2 16.7 5.6 39.5 13.9 59 13.9 10.4 0 18.7-2.1 24.3-7.6 27.8-24.3 58.3-68.7 81.2-107.5 55.5-6.9 100.6-21.5 136.7-37.5-39 61.7-110.5 159.5-202.7 212.3-9 4.9-21.5 7.6-36.8 7.6-34 0-78.4-12.5-102.7-29.8-13.2-9-18.7-22.9-14.6-36.1 3.5-12.5 16-22.2 29.9-22.2zM1020.5 459c-42.3 29.8-98.5 45.8-145.7 54.1-30.5 5.6-56.9 7.6-74.2 9-11.1 0.7-31.9 0.7-38.2 0.7-36.8 0-74.2-3.5-111-11.1-10.4-2.1-99.9-13.2-140.8-13.2-42.3 0-127 11.1-136 13.2-36.8 7.6-73.5 11.1-110.3 11.1-6.2 0-19.4 0-19.4 0-1.4 0-8.3 0-19.4-0.7-16.7-1.4-43.7-3.5-74.2-9-47.2-8.3-103.4-24.2-145.7-54.1-1.4-0.7-2.8-1.4-3.5-2.8l-2.1-2v-53.4l4.2-1.4c0 0 1.4 0 2.8-0.7 0.7 0 1.4-0.7 2.8-0.7 11.1-4.2 35.4-14.6 39.5-35.4-4.2-45.8-0.7-92.3 10.4-137.4v-0.7c10.4-37.5 52-75.6 93.7-84.6 36.8-7.6 74.2-11.1 110.3-11.1 36.8 0 74.2 3.5 111 11.1 40.2 9 82.6 47.9 93 84.6v0.7c16.7 65.2 16.7 131.8 0.7 197 14.6 2.1 29.8 3.5 44.4 3.5s29.8-1.4 44.4-3.5c-16-65.2-15.3-131.8 0.7-197v-0.7c10.4-36.8 52.7-75.6 93-84.6 36.8-7.6 74.2-11.1 111-11.1s74.2 3.5 111 11.1c40.9 9 83.3 47.2 93 84.6v0.7c11.1 45.1 14.6 91.6 10.4 137.4 4.2 20.8 28.4 31.2 39.5 35.4 0.7 0.7 2.1 0.7 2.8 0.7 1.4 0.7 2.8 0.7 2.8 0.7l4.2 1.4v53.4l-2.1 2.1c-0.2 1.3-1.6 2-3 2.7zM407.2 241.9c-4.2-14.6-28.4-36.1-45.1-39.5-32.6-6.2-65.9-9.7-98.5-9.7s-65.2 3.5-97.8 9.7c-17.3 4.2-40.9 24.3-45.8 39.5-13.9 56.2-13.9 113.1 0 168.6 4.2 14.6 28.4 36.1 45.1 39.5 14.6 2.8 53.4 4.9 98.5 4.9 44.4 0 82.6-2.1 97.1-4.9 17.3-4.2 40.9-25 45.8-39.5 14.6-56.2 14.6-112.4 0.7-168.6zM905.4 241.9c-4.2-15.3-28.4-36.1-45.1-39.5-32.6-6.2-65.2-9.7-97.8-9.7s-65.2 3.5-97.8 9.7c-16.7 3.5-40.9 25-45.1 39.5-13.9 56.2-13.9 113.1 0 168.6 4.2 15.3 28.4 36.1 45.1 39.5 14.6 2.8 52.7 4.9 97.1 4.9 45.1 0 83.9-2.1 98.5-4.9 16.7-3.5 40.9-25 45.1-39.5 13.9-56.2 13.9-112.4 0-168.6z" />
<glyph unicode="&#xe95d;" glyph-name="proposte, partnership-profiles" d="M827.037 723.324c-19.808 37.894-45.817 69.587-78.027 94.563-32.21 25.148-68.726 44.956-109.376 59.252-40.65 14.469-82.161 21.703-124.361 21.703s-83.711-7.234-124.361-21.703c-40.65-14.469-77.166-34.277-109.376-59.252-32.038-25.148-58.047-56.669-77.855-94.563-19.808-38.066-29.626-79.061-29.626-122.983 0-68.898 22.909-128.495 68.726-178.619 19.98-21.703 36.516-41.167 49.607-58.047s26.354-38.066 39.616-63.731c13.263-25.492 20.842-49.434 22.736-71.654-20.842-12.402-31.349-30.66-31.349-54.602 0-16.536 5.512-30.66 16.708-42.717-11.024-12.057-16.708-26.181-16.708-42.717 0-23.081 9.99-41.167 29.971-54.085-5.856-10.162-8.612-20.669-8.612-31.349 0-20.497 7.062-36.172 21.014-47.368 13.952-11.024 31.176-16.708 51.674-16.708 8.957-19.464 22.22-35.138 39.961-46.679s37.205-17.225 58.047-17.225c20.842 0 40.305 5.684 58.047 17.225s31.176 27.043 39.961 46.679c20.497 0 37.722 5.512 51.674 16.708 13.952 11.024 21.014 26.87 21.014 47.368 0 10.679-2.928 21.186-8.785 31.349 19.98 12.918 29.971 30.832 29.971 54.085 0 16.536-5.512 30.66-16.708 42.717 11.024 12.057 16.708 26.181 16.708 42.717 0 23.942-10.507 42.2-31.349 54.602 1.722 22.22 9.301 46.162 22.736 71.654 13.263 25.492 26.526 46.851 39.616 63.731s29.626 36.172 49.607 58.047c45.817 50.296 68.726 109.72 68.726 178.619 0 43.923-9.818 84.917-29.626 122.983v0zM726.101 480.285c-4.478-4.995-11.196-12.229-20.325-22.047s-15.847-17.052-20.325-22.047c-56.841-68.037-88.19-134.179-94.046-198.771h-151.921c-5.856 64.42-37.205 130.734-94.046 198.771-4.478 4.823-11.196 12.229-20.325 22.047s-15.847 17.052-20.325 22.047c-30.143 35.138-45.301 75.099-45.301 120.055 0 32.038 7.751 61.836 22.909 89.395 15.33 27.559 35.31 50.123 59.941 67.693s52.018 31.349 81.989 41.339c29.971 9.99 60.286 14.985 90.946 14.985s60.975-4.995 90.946-14.985c29.971-9.99 57.358-23.77 81.989-41.339s44.612-40.133 59.941-67.693c15.33-27.559 22.909-57.358 22.909-89.395 0.344-44.956-14.813-84.917-44.956-120.055v0zM581.759 696.281c-22.047 7.062-44.095 10.679-66.315 10.679-5.684 0-10.679-2.067-14.985-6.373s-6.373-9.301-6.373-14.985c0-5.856 2.067-10.851 6.373-14.985s9.301-6.373 14.985-6.373c23.081 0 46.679-5.512 70.621-16.708 23.942-11.024 35.999-26.87 35.999-47.368 0-5.856 2.067-10.851 6.373-14.985 4.306-4.306 9.301-6.373 14.985-6.373s10.679 2.067 14.985 6.373c4.306 4.134 6.373 9.129 6.373 14.985 0 23.081-8.268 43.061-24.976 59.941-16.708 17.052-35.999 29.11-58.047 36.172v0z" />
</font>
</defs>
</svg>
